<?xml version="1.0" encoding="UTF-8"?><svg id="a" xmlns="http://www.w3.org/2000/svg" width="73" height="73" viewBox="0 0 73 73"><path d="M72.44,36.5c0,19.85-16.09,35.94-35.94,35.94S.56,56.35.56,36.5,16.65.56,36.5.56s35.94,16.09,35.94,35.94Z" fill="#ff6994" stroke-width="0"/><text transform="translate(30.65 11.44)" fill="#000" font-family="Verdana, Verdana" font-size="10"><tspan x="0" y="0">P1</tspan></text><path d="M31.58,38.66c-.31-2.15-.47-5.18-1.62-7.1-2.25.35-4.78,1.42-6.85,2.43-.36.18-.69.38-1,.59-.56,1.07-.81,2.33-1.06,3.45-1.02,5.5,1.09,9.21,3.83,13.6,0,0,0,0,0,0,0,0,.01,0,.01-.01.65-.57,1.47-1.02,2.37-1.32.91-.63,1.75-1.38,2.49-2.21,2.46-2.69,2.22-6.02,1.82-9.43ZM30.59,43.85c-2.61.4-5.55.87-7.05-1.98-.4-.71-.48-1.51-.55-2.3.78-.62,1.35-1.19,2.14-1.51,4.04-1.51,6.18,2.46,5.47,5.78Z" fill="#969d99" stroke-width="0"/><path d="M35.71,53.65s0,.02.01.02c0,1.6-1.07,2.59-2.54,3.07.9.38,2.05.49,2.99.49v-3.32c-.16-.04-.34-.14-.46-.27Z" fill="#969d99" stroke-width="0"/><path d="M39.16,56.75c-1.47-.48-2.54-1.47-2.54-3.07,0,0,0-.01,0-.02-.12.13-.3.23-.45.26h0s0,3.32,0,3.32c0,0,0,0,0,0,.95,0,2.08-.12,2.99-.49Z" fill="#89908c" stroke-width="0"/><path d="M32.12,50.24c.46.16.91.37,1.33.63,1.04-.68,1.92.16,1.47,1.37.31.41.57.88.79,1.41.12.13.3.23.46.27v-4.83c-1.34-.17-2.85-.03-4.04,1.16Z" fill="#895b51" stroke-width="0"/><path d="M36.17,49.09h0v4.83h0c.16-.04.33-.13.45-.26.22-.53.48-1,.79-1.41-.45-1.21.43-2.04,1.47-1.37.42-.27.86-.48,1.32-.63-1.19-1.19-2.71-1.33-4.04-1.16Z" fill="#7b5249" stroke-width="0"/><path d="M51.31,38.04c-.25-1.12-.5-2.39-1.06-3.45-.32-.21-.65-.41-1.01-.59-2.08-1-4.6-2.07-6.85-2.43-1.16,1.92-1.32,4.95-1.62,7.1-.4,3.41-.63,6.74,1.82,9.43.75.83,1.58,1.57,2.49,2.2.89.3,1.71.75,2.35,1.31.01,0,.02.02.03.03,0,0,0,0,0-.01,2.74-4.39,4.85-8.1,3.83-13.6ZM48.8,41.87c-1.51,2.85-4.44,2.38-7.05,1.98-.71-3.33,1.43-7.29,5.47-5.78.79.32,1.36.88,2.14,1.51-.08.79-.16,1.58-.55,2.3Z" fill="#969d99" stroke-width="0"/><path d="M26.39,21.45c-2.34-3.46-3.5-5.34-6.97-7.39-.95-.63-2.06-1.19-3.17-1.19-4.28,2.14-.2,14.9-.2,18.7,0,2.38-.48,4.52-1.07,6.66-.69,2.85-2.26,6.54-2.02,9.75.24,5.23,4.64,8.08,9.03,9.86,1.96.72,4.26,1.03,6.23,1.72,2.19,1.96,5.07,2.62,7.95,2.62V22.97c-3.39.02-6.94-.24-9.78-1.52Z" fill="none" stroke-width="0"/><path d="M36.17,62.17c2.87,0,5.75-.66,7.94-2.62,1.97-.69,4.27-.99,6.23-1.72,4.4-1.78,8.79-4.64,9.03-9.86.24-3.21-1.33-6.89-2.02-9.75-.59-2.14-1.07-4.28-1.07-6.66,0-3.8,4.08-16.56-.2-18.7-1.11,0-2.22.55-3.17,1.19-3.47,2.05-4.63,3.93-6.97,7.39-2.84,1.29-6.38,1.54-9.78,1.52h0v39.2h0Z" fill="none" stroke-width="0"/><path d="M37.42,52.25c.42-.56.92-1.01,1.47-1.37-1.04-.68-1.92.16-1.47,1.37Z" fill="#392622" stroke-width="0"/><path d="M55.93,13.62c-4.63,1.07-8.2,7.14-9.98,11.18,2.85,3.33,6.28,3.74,9.15,10.21-.48-2.02-.24-4.04,0-5.94.48-4.04,4.63-12.12.83-15.45Z" fill="none" stroke-width="0"/><path d="M16.41,13.62c-3.8,3.33.36,11.41.83,15.45.24,1.9.48,3.92,0,5.94,2.87-6.48,6.3-6.89,9.15-10.21-1.78-4.04-5.35-10.11-9.98-11.18Z" fill="none" stroke-width="0"/><path d="M32.69,40.6c-.38-7.98-2.58-14.12-6.36-19.17.02,0,.04.01.06.02-2.34-3.46-3.5-5.34-6.97-7.39-.95-.63-2.06-1.19-3.17-1.19-4.28,2.14-.2,14.9-.2,18.7,0,2.38-.48,4.52-1.07,6.66-.69,2.85-2.26,6.54-2.02,9.75.24,5.23,4.64,8.08,9.03,9.86,1.96.72,4.26,1.03,6.23,1.72-.26-.24-.52-.49-.76-.76-.62-.68-1.19-1.96-1.29-2.9-.4-.26-.73-.57-.97-.9-.59-.71-.71-2.02-.71-2.97.12-.13.25-.26.39-.38,0,0,0,0,0,0-2.74-4.39-4.85-8.1-3.83-13.6.25-1.12.5-2.39,1.06-3.45.32-.21.65-.41,1-.59,2.08-1,4.61-2.07,6.85-2.43,1.16,1.92,1.32,4.95,1.62,7.1.4,3.41.63,6.73-1.82,9.43-.75.83-1.58,1.57-2.49,2.21,1.53-.51,3.29-.58,4.86-.05,1.19-1.19,2.71-1.33,4.04-1.16v-8.01c-1,.02-2.88-.24-3.48-.48ZM17.24,35.02c.48-2.02.24-4.04,0-5.94-.48-4.04-4.64-12.12-.83-15.45,4.64,1.07,8.2,7.14,9.98,11.18-2.85,3.33-6.28,3.74-9.15,10.21Z" fill="#c4d3cd" stroke-width="0"/><path d="M57.35,38.23c-.59-2.14-1.07-4.28-1.07-6.66,0-3.8,4.08-16.56-.2-18.7-1.11,0-2.22.55-3.17,1.19-3.47,2.05-4.63,3.93-6.97,7.39.02,0,.04-.02.06-.02-3.78,5.05-5.98,11.19-6.36,19.17-.59.24-2.48.5-3.48.47h0v8.01h0c1.34-.17,2.85-.03,4.04,1.16,1.57-.53,3.34-.46,4.87.06-.91-.63-1.74-1.37-2.49-2.2-2.46-2.69-2.22-6.02-1.82-9.43.31-2.15.46-5.18,1.62-7.1,2.25.35,4.78,1.42,6.85,2.43.36.18.69.38,1.01.59.56,1.07.81,2.33,1.06,3.45,1.02,5.5-1.09,9.21-3.83,13.6,0,0,0,0,0,.01.13.12.26.24.38.37,0,.95-.12,2.26-.71,2.97-.24.34-.57.64-.97.9-.11.94-.67,2.22-1.29,2.9-.24.27-.5.53-.76.76,1.97-.69,4.27-.99,6.23-1.72,4.4-1.78,8.79-4.64,9.03-9.86.24-3.21-1.33-6.89-2.02-9.75ZM55.1,35.02c-2.87-6.48-6.3-6.89-9.15-10.21,1.78-4.04,5.35-10.11,9.98-11.18,3.8,3.33-.36,11.41-.83,15.45-.24,1.9-.48,3.92,0,5.94Z" fill="#b3c1bc" stroke-width="0"/><path d="M33.45,50.88c.55.35,1.05.8,1.47,1.37.45-1.21-.43-2.04-1.47-1.37Z" fill="#45302c" stroke-width="0"/><path d="M33.18,56.75c-2.18.72-5.25.31-7.01-.86.11.94.67,2.22,1.29,2.9.24.27.5.53.76.76,2.19,1.96,5.07,2.62,7.95,2.62v-4.93c-.94,0-2.08-.12-2.99-.49Z" fill="#b3c1bc" stroke-width="0"/><path d="M39.16,56.75c-.9.38-2.04.49-2.99.49,0,0,0,0,0,0v4.93h0c2.87,0,5.75-.66,7.94-2.62.27-.24.52-.49.76-.76.62-.68,1.18-1.96,1.29-2.9-1.76,1.17-4.83,1.58-7.01.86Z" fill="#a3b0ac" stroke-width="0"/><path d="M47.21,38.07c-4.04-1.51-6.18,2.46-5.47,5.78,2.61.4,5.55.87,7.05-1.98.4-.71.48-1.51.55-2.3-.78-.62-1.35-1.19-2.14-1.51ZM45.33,44.04c-1.72,0-3.1-1.39-3.1-3.1s1.39-3.1,3.1-3.1,3.1,1.39,3.1,3.1-1.39,3.1-3.1,3.1Z" fill="#392622" stroke-width="0"/><path d="M48.43,40.93c0-1.71-1.39-3.1-3.1-3.1s-3.1,1.39-3.1,3.1,1.39,3.1,3.1,3.1,3.1-1.39,3.1-3.1ZM43.94,41.81c-.73-1.35-.04-2.54,1.13-3.33,1.17.3,2.02,1.64,1.69,2.84-.24.86-.79,1.22-1.47,1.78-.52-.36-1.05-.71-1.35-1.29Z" fill="#caa14e" stroke-width="0"/><path d="M46.76,41.32c.33-1.2-.52-2.54-1.69-2.84-1.17.79-1.86,1.98-1.13,3.33.3.57.83.93,1.35,1.29.68-.56,1.23-.92,1.47-1.78Z" fill="#000" stroke-width="0"/><path d="M55.93,13.62c-4.63,1.07-8.2,7.14-9.98,11.18,2.85,3.33,6.28,3.74,9.15,10.21-.48-2.02-.24-4.04,0-5.94.48-4.04,4.63-12.12.83-15.45Z" fill="#947b72" stroke-width="0"/><path d="M47.47,51.64s-.02-.02-.03-.03c-.65-.56-1.46-1.01-2.35-1.31-1.53-.51-3.3-.59-4.87-.06-.46.16-.91.37-1.32.63-.55.35-1.05.8-1.47,1.37-.31.41-.58.88-.79,1.41,0,0,0,.01,0,.02,0,1.6,1.07,2.59,2.54,3.07,2.18.72,5.25.31,7.01-.86.4-.26.73-.57.97-.9.59-.71.71-2.02.71-2.97-.12-.13-.24-.25-.38-.37Z" fill="#c0c5c5" stroke-width="0"/><path d="M25.12,38.07c-.79.32-1.36.88-2.14,1.51.08.79.16,1.59.55,2.3,1.51,2.85,4.44,2.38,7.05,1.98.71-3.33-1.43-7.29-5.47-5.78ZM27,44.04c-1.71,0-3.1-1.39-3.1-3.1s1.39-3.1,3.1-3.1,3.11,1.39,3.11,3.1-1.39,3.1-3.11,3.1Z" fill="#45302c" stroke-width="0"/><path d="M27,44.04c1.72,0,3.11-1.39,3.11-3.1s-1.39-3.1-3.11-3.1-3.1,1.39-3.1,3.1,1.39,3.1,3.1,3.1ZM27.26,38.48c1.17.79,1.86,1.98,1.13,3.33-.3.57-.83.93-1.35,1.29-.68-.56-1.23-.92-1.47-1.78-.33-1.2.52-2.54,1.69-2.84Z" fill="#deb057" stroke-width="0"/><path d="M27.04,43.1c.52-.36,1.05-.71,1.35-1.29.73-1.35.04-2.54-1.13-3.33-1.17.3-2.02,1.64-1.69,2.84.24.86.79,1.22,1.47,1.78Z" fill="#0e0108" stroke-width="0"/><path d="M16.41,13.62c-3.8,3.33.36,11.41.83,15.45.24,1.9.48,3.92,0,5.94,2.87-6.48,6.3-6.89,9.15-10.21-1.78-4.04-5.35-10.11-9.98-11.18Z" fill="#a2867c" stroke-width="0"/><path d="M35.71,53.65c-.22-.53-.48-1-.79-1.41-.42-.56-.92-1.01-1.47-1.37-.42-.27-.86-.48-1.33-.63-1.56-.53-3.33-.46-4.86.05-.9.3-1.72.75-2.37,1.32,0,0,0,0-.01.01-.14.12-.27.25-.39.38,0,.95.12,2.26.71,2.97.24.34.57.64.97.9,1.76,1.17,4.83,1.58,7.01.86,1.47-.48,2.54-1.47,2.54-3.07,0,0,0-.02-.01-.02Z" fill="#d3d8d7" stroke-width="0"/><path d="M26.39,21.45s-.04-.02-.06-.02c3.78,5.05,5.98,11.19,6.36,19.17.59.24,2.48.5,3.48.48v-18.1c-3.39.02-6.94-.24-9.78-1.52Z" fill="#6a6866" stroke-width="0"/><path d="M45.95,21.45c-2.84,1.29-6.38,1.54-9.78,1.52h0v18.1h0c1,.02,2.88-.24,3.48-.47.38-7.98,2.58-14.12,6.36-19.17-.02,0-.04.01-.06.02Z" fill="#5f5d5c" stroke-width="0"/><path d="M40.36,52.17c4.04-.37,7.98-.16,11.98.54,4.04.71,7.92,1.76,11.51,3.79.11.06.19-.09.09-.16-1.66-1.17-3.77-1.95-5.71-2.5-1.92-.54-3.87-.98-5.84-1.32-2.01-.35-4.05-.59-6.09-.69-1.97-.1-4.01-.11-5.95.27-.04,0-.03.08,0,.07h0Z" fill="#fff" stroke-width="0"/><path d="M40.12,53.33c3.43.09,6.8.31,10.16,1.07,1.59.36,3.15.83,4.68,1.42,1.55.6,2.96,1.42,4.42,2.2.04.02.1-.04.05-.07-1.15-.91-2.55-1.53-3.9-2.09-1.62-.67-3.31-1.18-5.01-1.57-3.36-.78-6.95-1.2-10.4-1-.03,0-.03.05,0,.05h0Z" fill="#fff" stroke-width="0"/><path d="M39.65,54.63c2.85.05,5.72.46,8.39,1.45,1.32.49,2.58,1.14,3.77,1.9,1.29.82,2.41,1.82,3.6,2.76.07.05.16-.03.1-.1-1.91-2.04-4.52-3.6-7.1-4.61-2.8-1.1-5.77-1.44-8.75-1.4,0,0,0,0,0,0h0Z" fill="#fff" stroke-width="0"/><path d="M31.99,52.1c-1.88-.37-3.85-.36-5.75-.28-2.04.08-4.07.33-6.09.67-1.98.33-3.93.77-5.87,1.3-2,.55-4.18,1.34-5.88,2.54-.1.07-.01.22.09.16,3.59-2.03,7.47-3.06,11.51-3.79,3.99-.71,7.95-.91,11.98-.54.04,0,.05-.06,0-.07h0Z" fill="#fff" stroke-width="0"/><path d="M32.21,53.27c-3.46-.2-7.03.24-10.4,1-1.65.37-3.27.87-4.84,1.5-1.41.56-2.88,1.22-4.07,2.17-.04.03.01.09.05.07,1.41-.75,2.76-1.53,4.24-2.13,1.51-.61,3.08-1.07,4.66-1.44,3.41-.81,6.86-1.02,10.35-1.12.03,0,.03-.05,0-.05h0Z" fill="#fff" stroke-width="0"/><path d="M32.69,54.62c-2.94-.03-5.82.31-8.6,1.34-2.64.98-5.33,2.61-7.26,4.67-.06.07.03.15.1.1,1.15-.9,2.23-1.86,3.45-2.66,1.18-.78,2.44-1.42,3.76-1.93,2.7-1.05,5.66-1.46,8.55-1.51,0,0,0,0,0,0h0Z" fill="#fff" stroke-width="0"/></svg>