<?xml version="1.0" encoding="UTF-8"?><svg xmlns="http://www.w3.org/2000/svg" width="750" height="500" xmlns:xlink="http://www.w3.org/1999/xlink" viewBox="0 0 750 500"><defs><clipPath id="c"><rect x="-.89" width="750.89" height="500" fill="none" stroke-width="0"/></clipPath></defs><g isolation="isolate"><g id="a"><rect x="-.89" width="750" height="500" fill="#f2edd3" stroke-width="0"/></g><g id="b"><g clip-path="url(#c)"><path d="M777.07,311.36s-44.36-160.78-48.86-191.28l-4.5-30.51s-.64,67.74,5.14,85.62l5.79,17.88s-30.21-46.29-28.93-65.57l1.29-19.29s-12.86,53.83,7.07,78.02c19.93,24.19,11.57,16.59,11.57,16.59l-54.47-18.77,44.18,52.73-17.59-5.94s2.81,14.19,22.73,32.89c19.93,18.7,56.57,47.62,56.57,47.62Z" fill="#e5dec1" stroke-width="0"/><path d="M755.98,187.49l-14.61,2.22,21,11.14,11.9,24.87-10.19,1.55,14.63,7.75,39.42,82.44-19.76,67.41-20.86,2.17-41.76,4.33c-10.49-23.31-24.48-82.91-35.14-132.86l3.58-.49,2.34-20.59-8.46,9.06c-3.29-15.68-6.16-29.93-8.37-41.17l10.43-7.01-11.93-.56c-2.13-10.87-3.36-17.44-3.36-17.44l25.11-46.88,38.12,37.47,7.93,16.59Z" fill="#496f44" stroke-width="0"/><polygon points="755.98 187.49 741.36 189.72 762.36 200.85 774.26 225.72 764.07 227.28 778.7 235.03 818.12 317.47 798.36 384.87 777.5 387.04 709.92 133.43 748.04 170.9 755.98 187.49" fill="#2f473a" stroke-width="0"/><path d="M516.95,427.93c31.32-42.87,34.07-83.52,34.07-83.52-34.72,12.35-58.26,30.07-74.21,48.91,5.97-41.05-3.37-70.01-3.37-70.01-24,21.12-38.68,42.87-47.27,63.55-1.67-4.32-3.44-8.45-5.27-12.39-.27-.6-.55-1.19-.83-1.78-18.35-38.31-42.84-57.8-43.45-58.28h-.01s0,0,0,0h0s0,0,0,0c-11.86,45.43-6.76,81.03,4.46,107.93-35.31-33.55-71.09-42.17-71.09-42.17,21.48,123.05,125.33,129.96,125.33,129.96-1.65-5.05-3.42-9.9-5.29-14.58,2.08-2.51,4.08-5.02,6-7.53,1.43.89,2.28,1.36,2.39,1.42h0s0,0,0,0h0s0,0,0,0c.08-.69.15-1.38.22-2.07.11-1.1.21-2.19.31-3.28,1.71-2.34,3.37-4.68,4.94-7.02-.4,7.95.09,12.76.09,12.76,5.23-2.76,10.19-5.62,14.92-8.57,107.96,13.21,165.27-54.25,165.27-54.25-44.89-13.64-80.4-9.51-107.23.95Z" fill="#e5dec1" stroke-width="0"/><path d="M527.6-27.17s15.53,507.43.97,538.29l-14.56,30.86,49.51-19.29s-4.16-269.3-6.8-331.71c-2.64-62.42,24.27-219.86,24.27-219.86,0,0-44.66-14.57-53.4,1.71Z" fill="#e5dec1" stroke-width="0"/><path d="M100.41-58.26s9.27,507.43.58,538.29l-8.69,30.86,29.56-19.29s-2.48-269.3-4.06-331.71c-1.58-62.42,14.49-219.86,14.49-219.86,0,0-26.66-14.57-31.88,1.71Z" fill="#e5dec1" stroke-width="0"/><path d="M413.51,16.67s-5.01,76.05-103.89,133.99c-24.72,42.27,0,384.92,0,384.92h-100.99s51.39-354.87,37.36-384.69c-14.03-29.83-36.99-45.69-70.92-93.94-17.07-24.27,1.57-87.59,1.57-87.59,0,0,46.64,88.31,62.93,116.71,16.29,28.4,35.57,55.96,35.57,55.96,0,0,21.83-15.04,43.91-35.47,22.09-20.43,34.09-16.59,38.37-35.32,4.29-18.73-9.86-79.39-9.86-79.39l26.65-26.64,8.14,14.41-8.14,70.48s7.13,6.25,16.63-19.21c9.51-25.46,15-55.3,15-55.3l7.66,41.09Z" fill="#e5dec1" stroke-width="0"/><path d="M162.62.54s-29.68,9.33-36.48,32.09c0,0,9.81,6.67,28.29,3.36l18.48-3.31s-5.83,11.25-2.57,24.43c0,0,13.12-6.39,17.92-13.27l4.8-6.88s5.95,14.78,10.48,24.96c0,0,17.38-15.84,24.67-25.54l7.29-9.7s-6.02,26.2,1.49,42.24c0,0,15.22-11.83,19.94-19.96l4.71-8.14s-6.15,2.69,6.67,12.86c12.82,10.17,9.76,4.7,9.76,4.7,0,0,10.84-7.23,10.49-14.54-.35-7.31,0-22.36,0-22.36,0,0,4.6,12.04,16.06,27.48,11.45,15.44,13.17,16.27,13.17,16.27,0,0,22.19-22.26,22.88-34.69.32-5.68.49-8.77.58-10.44l.11-1.99s14.89,26.24,25.82,30.85l10.93,4.61s5.14-11.7,10.29-17.58l5.14-5.88s-4.65,26.52.41,38.81c0,0,17.92-5.39,28.84-14.39,10.93-9,22.5-16.81,33.43-44.08l10.93-27.28L162.62.54Z" fill="#416d24" stroke-width="0"/><path d="M401.96,527.24s-44.36-160.78-48.86-191.28l-4.5-30.5s-.64,67.74,5.14,85.62l5.79,17.88s-30.21-46.29-28.93-65.57l1.29-19.29s-12.86,53.83,7.07,78.02,11.57,16.59,11.57,16.59l-54.47-18.77,44.18,52.73-17.59-5.94s2.81,14.19,22.73,32.89c19.93,18.7,56.57,47.62,56.57,47.62Z" fill="#d1c999" stroke-width="0"/><path d="M126.77,513.38s37.25-162.57,40.41-193.24l3.16-30.67s3.62,67.65-1.38,85.77l-4.99,18.11s28.15-47.57,26.02-66.78l-2.13-19.21s15.21,53.21-3.64,78.26c-18.85,25.05-10.83,17.08-10.83,17.08l53.59-21.14-41.82,54.62,17.31-6.7s-2.18,14.3-21.27,33.85c-19.09,19.55-54.43,50.06-54.43,50.06Z" fill="#d1c999" stroke-width="0"/><path d="M299.43,299.79s87.75-37.61,106.07-76.18c18.32-38.57-8.68-35.68,38.57-62.68s111.86-17.36,135-68.46c23.14-51.11,19.93-92.46,19.93-92.46l-14.92-7.37s3.61-.5-16.13,44.85c-19.74,45.34-35.17,69.45-66.99,78.13-31.82,8.68-68.46,18.32-89.68,35.68-21.21,17.36-43.39,82.93-74.25,91.61-30.86,8.68-38.16-.9-38.16-.9l.55,57.79Z" fill="#e5dec1" stroke-width="0"/><path d="M659.38,367.49c-3.95,1.4-12.59,4.45-29.57,10.47-20.41,7.23-27.99,19.07-30.31,23.85-.46.95.29,2.04,1.34,1.97,6.68-.44,26.79-2.13,38.43-6.97,11.14-4.62,19.02-20.85,21.84-27.48.47-1.11-.6-2.24-1.73-1.84Z" fill="#e5dec1" stroke-width="0"/><path d="M660.94,334.21c-3.95,1.4-12.59,4.45-29.57,10.47-20.41,7.23-27.99,19.07-30.31,23.85-.46.95.29,2.04,1.34,1.97,6.68-.44,26.79-2.13,38.43-6.97,11.14-4.62,19.02-20.85,21.84-27.48.47-1.11-.6-2.25-1.73-1.84Z" fill="#e5dec1" stroke-width="0"/><path d="M656.88,293.11c-3.79,1.8-12.06,5.73-28.33,13.47-19.55,9.3-25.86,21.86-27.68,26.86-.36.99.5,2,1.54,1.82,6.59-1.13,26.42-4.89,37.51-10.9,10.6-5.75,16.75-22.7,18.88-29.59.35-1.15-.82-2.17-1.91-1.65Z" fill="#e5dec1" stroke-width="0"/><path d="M606.66,305.2c5.8-3.34,23.1-13.73,31.41-23.2,7.96-9.06,7.85-27.09,7.46-34.29-.07-1.2-1.53-1.75-2.37-.89-2.93,3-9.33,9.54-21.92,22.43-15.12,15.48-16.69,29.45-16.66,34.77,0,1.06,1.16,1.7,2.08,1.18Z" fill="#e5dec1" stroke-width="0"/><path d="M606.17,285.37l-2.22-9.2c.29-.15.53-.39.66-.73,2.37-6.25,9.2-25.22,9.65-37.81.43-12.04-11.07-25.93-15.94-31.26-.81-.89-2.29-.39-2.4.81-.37,4.17-1.18,13.28-2.77,31.22-1.91,21.54,5.72,33.35,9.11,37.45.3.36.72.51,1.13.48l-4.53,141.26,7.31-132.21Z" fill="#e5dec1" stroke-width="0"/><path d="M600.15,402.07c-1.93-4.95-8.54-17.36-28.3-26.19-16.45-7.35-24.81-11.08-28.64-12.78-1.1-.49-2.26.56-1.88,1.7,2.28,6.84,8.83,23.64,19.56,29.13,11.22,5.74,31.13,9.03,37.75,10,1.05.15,1.88-.87,1.5-1.86Z" fill="#e5dec1" stroke-width="0"/><path d="M562.06,360.69c11.22,5.74,31.13,9.03,37.75,10,1.05.15,1.88-.87,1.5-1.86-1.93-4.95-8.54-17.36-28.3-26.19-16.45-7.35-24.81-11.08-28.64-12.78-1.1-.49-2.26.56-1.88,1.7,2.28,6.84,8.83,23.64,19.56,29.13Z" fill="#e5dec1" stroke-width="0"/><path d="M563.62,321.93c10.57,6.87,30.03,12.2,36.51,13.85,1.02.26,1.96-.68,1.68-1.69-1.41-5.13-6.69-18.15-25.43-28.97-15.6-9.01-23.53-13.58-27.16-15.68-1.04-.6-2.3.32-2.04,1.5,1.56,7.04,6.33,24.43,16.44,31Z" fill="#e5dec1" stroke-width="0"/><path d="M600.47,304.03c1.01.7,2.42.05,2.52-1.17.53-6.18.02-22.55-16.1-41.95-13.42-16.14-20.24-24.35-23.37-28.1-.9-1.08-2.65-.58-2.84.81-1.14,8.33-2.95,29.27,5.45,40.54,8.78,11.78,27.91,25.45,34.34,29.87Z" fill="#e5dec1" stroke-width="0"/><path d="M181.78,355.5c-4.18.25-13.33.81-31.31,1.91-21.61,1.32-32.16,10.61-35.71,14.57-.71.79-.28,2.04.75,2.26,6.54,1.41,26.34,5.33,38.87,3.9,11.98-1.37,24.03-14.8,28.57-20.4.76-.94.05-2.32-1.16-2.25Z" fill="#e5dec1" stroke-width="0"/><path d="M192.45,323.94c-4.18.25-13.33.81-31.31,1.91-21.61,1.32-32.16,10.61-35.71,14.57-.71.79-.28,2.04.75,2.26,6.54,1.41,26.34,5.33,38.87,3.9,11.98-1.37,24.03-14.8,28.57-20.4.76-.94.05-2.32-1.16-2.25Z" fill="#e5dec1" stroke-width="0"/><path d="M199.88,283.31c-4.13.68-13.17,2.18-30.95,5.14-21.36,3.55-30.89,13.88-34.01,18.19-.62.85-.07,2.06.98,2.18,6.65.73,26.75,2.58,39.06-.14,11.78-2.6,22.36-17.2,26.3-23.24.66-1.01-.19-2.31-1.38-2.12Z" fill="#e5dec1" stroke-width="0"/><path d="M148.28,281.09c6.49-1.61,25.98-6.83,36.59-13.64,10.15-6.51,15.02-23.87,16.62-30.9.27-1.17-.98-2.1-2.03-1.51-3.64,2.07-11.6,6.6-27.25,15.52-18.8,10.71-24.16,23.71-25.6,28.82-.29,1.02.65,1.96,1.67,1.7Z" fill="#e5dec1" stroke-width="0"/><path d="M153.27,261.89l.4-9.45c.32-.06.62-.23.84-.52,4-5.35,15.8-21.71,19.7-33.68,3.73-11.46-3.49-27.98-6.7-34.44-.54-1.08-2.09-1.01-2.53.12-1.51,3.91-4.8,12.44-11.27,29.24-7.77,20.18-3.7,33.63-1.57,38.5.19.43.55.68.95.77l-43.3,134.54,43.47-125.08Z" fill="#e5dec1" stroke-width="0"/><path d="M115.31,372.41c-.49-5.29-3.42-19.04-19.98-32.97-13.78-11.6-20.8-17.49-24-20.18-.92-.78-2.32-.09-2.27,1.12.31,7.2,1.97,25.16,10.77,33.39,9.21,8.61,27.44,17.26,33.53,20.02.96.44,2.05-.32,1.95-1.37Z" fill="#e5dec1" stroke-width="0"/><path d="M90.11,322.13c9.21,8.61,27.44,17.26,33.53,20.02.96.44,2.05-.32,1.95-1.37-.49-5.29-3.42-19.04-19.98-32.97-13.78-11.6-20.8-17.49-24-20.18-.92-.78-2.32-.09-2.27,1.12.31,7.2,1.97,25.16,10.77,33.39Z" fill="#e5dec1" stroke-width="0"/><path d="M102.29,285.31c8.26,9.52,25.5,20,31.28,23.38.91.53,2.07-.11,2.08-1.16.06-5.32-1.43-19.29-16.46-34.86-12.51-12.96-18.87-19.54-21.78-22.56-.84-.87-2.3-.33-2.37.88-.44,7.2-.65,25.22,7.25,34.33Z" fill="#e5dec1" stroke-width="0"/><path d="M142.65,278.26c.78.95,2.31.72,2.75-.43,2.21-5.79,6.23-21.68-3.91-44.76-8.45-19.22-12.75-28.99-14.71-33.46-.57-1.29-2.39-1.29-2.95,0-3.39,7.69-10.91,27.33-5.94,40.47,5.19,13.74,19.81,32.16,24.77,38.18Z" fill="#e5dec1" stroke-width="0"/><path d="M646.12,284.43l21.13-11.02-5.79,18.01,28.13,27,19.16-8.05-5.69,15.19,32.72,34.62,17.22-9.22-3.43,18.37,56.16,63.91,3.64-44.74,4.51-55.5s-81.86-70.61-165.15-99.09c-3.22-1.1-6.43-2.14-9.65-3.11l-53.96,16.38,61,37.23Z" fill="#c2c155" stroke-width="0"/><path d="M648.73,233.93c71.66,40.84,143.46,131.97,160.64,154.59l4.51-55.5s-81.86-70.61-165.15-99.09Z" fill="#d6d35f" stroke-width="0"/><path d="M313.69-20.68s-29.68,9.33-36.48,32.09c0,0,9.81,6.67,28.29,3.36l18.48-3.31s-5.83,11.25-2.57,24.43c0,0,13.12-6.39,17.92-13.27l4.8-6.88s5.95,14.78,10.48,24.96c0,0,17.38-15.84,24.67-25.54l7.29-9.7s-6.02,26.2,1.49,42.24c0,0,15.22-11.83,19.94-19.96l4.71-8.14s-6.15,2.69,6.67,12.86c12.82,10.17,9.76,4.7,9.76,4.7,0,0,10.84-7.23,10.49-14.54-.35-7.31,0-22.36,0-22.36,0,0,4.6,12.04,16.06,27.48,11.45,15.44,13.17,16.27,13.17,16.27,0,0,22.19-22.26,22.88-34.69.32-5.68.49-8.77.58-10.44l.11-1.99s14.89,26.24,25.82,30.85l10.93,4.61s5.14-11.7,10.29-17.58l5.14-5.88s-4.65,26.52.41,38.81c0,0,17.92-5.39,28.84-14.39,10.93-9,22.5-16.81,33.43-44.08l10.93-27.28-304.5,17.36Z" fill="#527f34" stroke-width="0"/><path d="M548.91,57.18s5.01,67.85,103.89,119.55c24.72,37.72,0,343.44,0,343.44h100.99s-51.39-316.62-37.36-343.23,13.07-73.53,70.92-83.82c57.86-10.29-25.07-22.4-25.07-22.4,0,0-23.14,23.03-39.43,48.37-16.29,25.34-35.57,49.93-35.57,49.93,0,0-21.83-13.42-43.91-31.65-22.09-18.23-34.09-14.8-38.37-31.52-4.29-16.71,9.86-70.83,9.86-70.83l-26.65-23.77-8.14,12.86,8.14,62.89s-7.13,5.57-16.63-17.14c-9.51-22.72-15-49.34-15-49.34l-7.66,36.66Z" fill="#293d39" stroke-width="0"/><path d="M98.91,3.58s-5.01,67.85-103.89,119.55c-24.72,37.72,0,343.44,0,343.44h-100.99S-54.58,149.95-68.61,123.34c-14.03-26.61-13.07-73.53-70.92-83.82-57.86-10.29,25.07-22.4,25.07-22.4,0,0,23.14,23.03,39.43,48.37,16.29,25.34,35.57,49.93,35.57,49.93,0,0,21.83-13.42,43.91-31.65,22.09-18.23,34.09-14.8,38.37-31.52,4.29-16.71-9.86-70.83-9.86-70.83l26.65-23.77,8.14,12.86-8.14,62.89s7.13,5.57,16.63-17.14c9.51-22.72,15-49.34,15-49.34l7.66,36.66Z" fill="#293d39" stroke-width="0"/><path d="M636.13,386.98c-8.43,11.21-14.59,24.53-25.74,33.03-18.07,13.78-43.23,10.96-65.65,14.73-13.09,2.2-25.64,6.83-38.09,11.43-11.5,4.25-23,8.5-34.5,12.75-15.09,5.58-30.37,11.25-43.54,20.49-19.89,13.96-34.09,36.29-36.7,60.45,114.28-19.15,231.03-23.52,346.43-12.97,15.06,1.38,32.52,2.14,42.72-9.02,9.87-10.79,8.05-27.49,5.62-41.91-4.89-28.97-9.77-57.94-14.66-86.91-2.97-17.63-.83-50.38-22.55-55.55-17.86-4.25-44.71,8.22-60.68,14.98-20.09,8.51-39.6,20.62-52.66,38.49Z" fill="#659549" stroke-width="0"/><path d="M774.5,535.07s-44.36-160.78-48.86-191.28l-4.5-30.5s-.64,67.74,5.14,85.62l5.79,17.88s-30.21-46.29-28.93-65.57l1.29-19.29s-12.86,53.83,7.07,78.02c19.93,24.19,11.57,16.59,11.57,16.59l-54.47-18.77,44.18,52.73-17.59-5.94s2.81,14.19,22.73,32.89c19.93,18.7,56.57,47.62,56.57,47.62Z" fill="#527f34" stroke-width="0"/><path d="M497.29,606.17s-29.92-164.08-31.69-194.86l-1.78-30.78s-6.65,67.42-2.47,85.74l4.18,18.32s-25.99-48.78-23-67.88l2.99-19.1s-17.58,52.47.12,78.34c17.7,25.87,10.05,17.55,10.05,17.55l-52.59-23.53,39.33,56.44-16.99-7.48s1.54,14.38,19.73,34.77c18.19,20.39,52.12,52.45,52.12,52.45Z" fill="#406b24" stroke-width="0"/><path d="M634.1,517.78s-3.43-102,34.71-137.14c0,0-37.59,25.28-47.08,73.93,0,0,.72-29.07-9.1-46.14,0,0-7.19,21.15-4.79,27.61,0,0-20.27-37.29-16.93-46.55,0,0-5.14,15.38-3.26,46.55l1.88,31.18s-21-20.35-31.93-44.89l-10.93-24.54s4.23,62.84,9,75.78,14.75,56.82,14.75,56.82l65.4-10.49" fill="#c2c155" stroke-width="0"/><path d="M569.3,411.41l22.19-11.55-28.97-.47s-4.58-11.05-4.83-18.3l-.25-7.25,31.03.65-29.81-16.2s5.83-18.75,27.98-27.08l23.3,35.25-8.26-41.5s20.29-7.8,37.46-5.31l-2.17,37.23,15.15-35.67s26.94,1.29,39.73,21.18l-15.55,16.9,19.68,1.95s-7.72,17.77-15.07,25.46l-19.09-4.49,9.29,13.99s-7.57,5.97-18.2,10.49c-10.63,4.52-9.23,4.54-9.23,4.54l-5.5-5.9-.64,7.62s-29.89,19.12-68.28-1.54Z" fill="#374f3f" stroke-width="0"/><polyline points="558.8 385.3 625.39 397.66 570.21 341.3" fill="none" stroke="#659549" stroke-miterlimit="10"/><polyline points="614.74 321.3 625.39 397.66 674.59 329.34" fill="none" stroke="#659549" stroke-miterlimit="10"/><polyline points="660.86 322.34 625.39 397.66 581.28 417.02" fill="none" stroke="#659549" stroke-miterlimit="10"/><line x1="631.43" y1="415.36" x2="625.39" y2="397.66" fill="none" stroke="#659549" stroke-miterlimit="10"/><path d="M291.07,532.89s-3.43-102,34.71-137.14c0,0-37.59,25.28-47.08,73.93,0,0,.72-29.07-9.1-46.14,0,0-7.19,21.15-4.79,27.61,0,0-20.27-37.29-16.93-46.55,0,0-5.14,15.38-3.26,46.55l1.88,31.18s-21-20.35-31.93-44.89l-10.93-24.54s4.23,62.84,9,75.78,14.75,56.82,14.75,56.82l65.4-10.49" fill="#c2c155" stroke-width="0"/><path d="M74.87,169.83l-13.53-5.96,11.75,20.66-3.29,27.37-9.43-4.15,8.19,14.39-10.93,90.72-52.82,46.3-18.77-9.36-37.57-18.74c3.64-25.3,23.8-83.11,41.58-130.99l3.28,1.5,13.02-16.12-12,3.11c5.64-15,10.85-28.57,15.01-39.24l12.56-.32-9.77-6.87c4.03-10.32,6.52-16.52,6.52-16.52l46.33-26.11,12.08,52.07-2.2,18.26Z" fill="#496f44" stroke-width="0"/><polygon points="74.87 169.83 61.34 163.87 73.1 184.53 69.8 211.9 60.37 207.75 68.56 222.14 57.63 312.86 4.81 359.16 -13.97 349.8 64.99 99.5 77.07 151.57 74.87 169.83" fill="#2f473a" stroke-width="0"/><path d="M149.43,242.39l-21.56-10.15,6.52,17.76-27.01,28.12-19.47-7.26,6.3,14.95-31.28,35.93-17.58-8.51,4.18,18.21L-3.98,397.59l-5.46-44.55-6.77-55.27s78.91-73.89,160.97-105.74c3.17-1.23,6.34-2.4,9.52-3.5l54.58,14.17-59.43,39.69Z" fill="#c2c155" stroke-width="0"/><path d="M144.76,192.03C74.82,235.76,6.8,329.74-9.44,353.04l-6.77-55.27s78.91-73.89,160.97-105.74Z" fill="#d6d35f" stroke-width="0"/><path d="M8.42,480.02c-.64-2.57,9.08-85.53,19.24-123.83l-36.64,76.5s-10.29-73.93-18-91.93l-7.71-18-9.86,87.14-4.28,67.79,57.26,2.33Z" fill="#527f34" stroke-width="0"/><path d="M112.57,515.76s-11.04-107.27,110.9-150.65c0,0-6.45,95.61-110.9,150.65Z" fill="#374f3f" stroke-width="0"/><line x1="223.47" y1="365.12" x2="112.57" y2="515.76" fill="none" stroke="#192d1f" stroke-miterlimit="10"/><polyline points="176.2 400.1 168.02 440.44 200.91 421.63" fill="none" stroke="#192d1f" stroke-miterlimit="10"/><polyline points="147.48 440.05 139.31 480.39 172.2 461.59" fill="none" stroke="#192d1f" stroke-miterlimit="10"/><path d="M107.03,513.22c-.07.71-.15,1.43-.23,2.14h-.01c-.61-.34-22.68-12.47-42.08-38.85-21.35-29.08-39.45-75.48-21.97-142.49h.02c.63.51,26.01,20.7,45.02,60.39.29.61.58,1.22.86,1.84,13.52,28.95,23.49,67.96,18.38,116.96Z" fill="#5c893f" stroke-width="0"/><path d="M107.03,513.22c-6.7-4.19-24.36-16.45-40.25-38.08,2.21-8.79,4.4-17.57,6.62-26.37.33-1.37.68-2.74,1.03-4.11,1.46-5.8,2.91-11.59,4.46-17.38.62-2.31,1.26-4.63,1.93-6.93,1.98-6.95,4.16-13.85,6.7-20.63.27-.71.65-1.96,1.14-3.47,13.52,28.95,23.49,67.96,18.38,116.96Z" fill="#527f34" mix-blend-mode="multiply" opacity=".32" stroke-width="0"/><polyline points="106.81 515.36 106.8 515.35 91.22 471.22 76.55 429.72 74.78 424.69 42.77 334.03 42.76 334.02" fill="none" stroke="#355722" stroke-miterlimit="10"/><polyline points="45.19 394.41 74.78 424.69 77.8 385.88" fill="none" stroke="#355722" stroke-miterlimit="10"/><polyline points="62.58 441.91 92.17 472.19 95.18 433.38" fill="none" stroke="#355722" stroke-miterlimit="10"/><path d="M95.94,524.28s-50.02-95.54,47.15-181.02c0,0,29.45,91.19-47.15,181.02Z" fill="#659549" stroke-width="0"/><line x1="143.09" y1="343.25" x2="95.94" y2="524.28" fill="none" stroke="#355722" stroke-miterlimit="10"/><polyline points="112.15 393.27 119.52 433.76 143.09 404.11" fill="none" stroke="#355722" stroke-miterlimit="10"/><polyline points="100.29 441.01 107.66 481.51 131.23 451.85" fill="none" stroke="#355722" stroke-miterlimit="10"/><path d="M120.54,505.86s54.9-92.81,178.73-55.19c0,0-62.03,73.04-178.73,55.19Z" fill="#77ad55" stroke-width="0"/><line x1="299.27" y1="450.67" x2="120.54" y2="505.86" fill="none" stroke="#355722" stroke-miterlimit="10"/><polyline points="240.46 450.69 209.91 478.27 247.53 482.7" fill="none" stroke="#355722" stroke-miterlimit="10"/><polyline points="193.62 465.74 163.06 493.32 200.69 497.75" fill="none" stroke="#355722" stroke-miterlimit="10"/><path d="M103.58,536.79s-107.6-7.15-129.86-134.65c0,0,93.17,22.43,129.86,134.65Z" fill="#77ad55" stroke-width="0"/><line x1="-26.27" y1="402.15" x2="103.58" y2="536.79" fill="none" stroke="#c2c155" stroke-miterlimit="10"/><polyline points=".26 454.63 38.65 469.47 25.65 433.89" fill="none" stroke="#c2c155" stroke-miterlimit="10"/><polyline points="34.81 489.65 73.21 504.49 60.2 468.91" fill="none" stroke="#c2c155" stroke-miterlimit="10"/><line x1="14.23" y1="504.86" x2="33.09" y2="496.74" fill="none" stroke="#293d39" stroke-miterlimit="10"/><path d="M32.08,498.24c-1.09-.12-1.66-1.36-1.02-2.25,3.22-4.47,13.07-15.2,35.19-18.95,18.41-3.11,27.77-4.69,32.05-5.41,1.23-.21,2.12,1.14,1.44,2.19-4.07,6.27-14.99,21.43-27.19,24.16-12.75,2.86-33.58,1-40.47.26Z" fill="#293d39" stroke-width="0"/><path d="M97.35,473.82s-24.14,15.1-64.63,22.92" fill="none" stroke="#6f9e7c" stroke-linecap="round" stroke-linejoin="round"/><line x1="22.17" y1="469.77" x2="36.72" y2="462.17" fill="none" stroke="#293d39" stroke-miterlimit="10"/><path d="M35.71,463.67c-1.09-.12-1.66-1.36-1.02-2.25,3.22-4.47,13.07-15.2,35.19-18.95,18.41-3.11,27.77-4.69,32.05-5.41,1.23-.21,2.12,1.14,1.44,2.19-4.07,6.27-14.99,21.43-27.19,24.16-12.75,2.86-33.58,1-40.47.26Z" fill="#293d39" stroke-width="0"/><path d="M100.98,439.25s-24.14,15.1-64.63,22.92" fill="none" stroke="#6f9e7c" stroke-linecap="round" stroke-linejoin="round"/><line x1="29.85" y1="438.24" x2="46.69" y2="430.28" fill="none" stroke="#293d39" stroke-miterlimit="10"/><path d="M45.84,431.87c-1.09,0-1.79-1.18-1.25-2.13,2.74-4.78,11.43-16.47,33.04-22.48,17.99-5,27.13-7.54,31.32-8.7,1.2-.33,2.23.92,1.66,2.03-3.39,6.66-12.69,22.86-24.54,26.84-12.39,4.16-33.29,4.46-40.22,4.44Z" fill="#293d39" stroke-width="0"/><path d="M108.23,400.83s-22.44,17.52-61.91,29.48" fill="none" stroke="#6f9e7c" stroke-linecap="round" stroke-linejoin="round"/><line x1="35.87" y1="411.57" x2="48.01" y2="398.33" fill="none" stroke="#293d39" stroke-miterlimit="10"/><path d="M47.76,400.12c-1.03.38-2.09-.49-1.91-1.57.92-5.43,5.01-19.41,23.2-32.51,15.14-10.91,22.84-16.45,26.36-18.99,1.01-.73,2.41.09,2.26,1.33-.88,7.42-3.98,25.84-13.72,33.67-10.18,8.18-29.69,15.7-36.2,18.08Z" fill="#293d39" stroke-width="0"/><path d="M95.54,349.43s-14.98,24.2-47.86,49.07" fill="none" stroke="#6f9e7c" stroke-linecap="round" stroke-linejoin="round"/><polyline points="42.14 369.34 42.9 381.29 11.89 514.93" fill="none" stroke="#293d39" stroke-miterlimit="10"/><path d="M43.08,370.88c-.56.94-1.93.94-2.47,0-2.73-4.79-8.41-18.2-2.62-39.84,4.82-18.02,7.27-27.18,8.39-31.37.32-1.21,1.92-1.45,2.59-.4,4.02,6.3,13.28,22.53,10.7,34.74-2.7,12.77-13.05,30.92-16.58,36.87Z" fill="#293d39" stroke-width="0"/><path d="M47.98,301.43s3.72,28.21-5.99,68.24" fill="none" stroke="#6f9e7c" stroke-linecap="round" stroke-linejoin="round"/><line x1="13.6" y1="507.57" x2="-1.56" y2="493.55" fill="none" stroke="#293d39" stroke-miterlimit="10"/><path d="M-1.26,495.33c1.04.34,2.08-.56,1.86-1.63-1.09-5.4-5.62-19.24-24.21-31.77-15.48-10.43-23.35-15.73-26.95-18.15-1.04-.7-2.4.17-2.22,1.4,1.11,7.39,4.8,25.7,14.77,33.22,10.43,7.86,30.17,14.76,36.75,16.93Z" fill="#293d39" stroke-width="0"/><line x1="21.33" y1="474.23" x2="9.43" y2="460.57" fill="none" stroke="#293d39" stroke-miterlimit="10"/><path d="M9.73,462.35c1.04.34,2.08-.56,1.86-1.63-1.09-5.4-5.62-19.24-24.21-31.77-15.48-10.43-23.35-15.73-26.95-18.15-1.04-.7-2.4.17-2.22,1.4,1.11,7.39,4.8,25.7,14.77,33.22,10.43,7.86,30.17,14.76,36.75,16.93Z" fill="#293d39" stroke-width="0"/><path d="M-39.62,413.18s15.74,23.71,49.39,47.54" fill="none" stroke="#6f9e7c" stroke-linecap="round" stroke-linejoin="round"/><line x1="28.38" y1="444.91" x2="13.54" y2="427.41" fill="none" stroke="#293d39" stroke-miterlimit="10"/><path d="M13.65,429.21c1,.45,2.12-.34,2.02-1.43-.52-5.48-3.6-19.72-20.79-34.1-14.31-11.97-21.59-18.06-24.93-20.84-.96-.8-2.41-.08-2.35,1.16.34,7.46,2.11,26.06,11.25,34.57,9.56,8.9,28.48,17.8,34.8,20.64Z" fill="#293d39" stroke-width="0"/><path d="M-30.34,375.21s13.2,25.21,44.2,52.39" fill="none" stroke="#6f9e7c" stroke-linecap="round" stroke-linejoin="round"/><line x1="36.76" y1="407.74" x2="30.63" y2="390.59" fill="none" stroke="#293d39" stroke-miterlimit="10"/><path d="M30.03,392.61c.91.89,2.46.48,2.79-.75,1.64-6.21,4.04-23.02-8.96-45.69-10.82-18.87-16.32-28.46-18.84-32.85-.73-1.26-2.6-1.06-3.04.33-2.64,8.3-8.23,29.35-1.66,42.35,6.86,13.59,23.96,30.95,29.72,36.61Z" fill="#293d39" stroke-width="0"/><path d="M3.73,315.8s4.25,32.9,27.17,75.12" fill="none" stroke="#6f9e7c" stroke-linecap="round" stroke-linejoin="round"/><line x1="734" y1="505.84" x2="741.57" y2="493.72" fill="none" stroke="#293d39" stroke-miterlimit="10"/><path d="M741.47,495.29c-.87.39-1.85-.29-1.76-1.24.45-4.77,3.12-17.17,18.08-29.72,12.45-10.44,18.78-15.75,21.68-18.18.83-.7,2.09-.08,2.05,1.01-.29,6.5-1.82,22.69-9.78,30.11-8.32,7.76-24.77,15.54-30.27,18.02Z" fill="#c2c155" stroke-width="0"/><path d="M779.73,448.21s-11.47,21.97-38.43,45.67" fill="none" stroke="#293d39" stroke-miterlimit="10"/><line x1="725.88" y1="478.78" x2="735.01" y2="465.38" fill="none" stroke="#293d39" stroke-miterlimit="10"/><path d="M735.08,466.96c-.82.48-1.87-.1-1.88-1.05-.04-4.8,1.32-17.4,14.9-31.43,11.3-11.68,17.05-17.61,19.68-20.32.76-.78,2.08-.29,2.14.79.38,6.49.54,22.76-6.61,30.96-7.47,8.58-23.03,18.01-28.24,21.05Z" fill="#c2c155" stroke-width="0"/><path d="M768.25,416.18s-9.14,23.04-33.5,49.4" fill="none" stroke="#293d39" stroke-miterlimit="10"/><line x1="718.66" y1="456.1" x2="721.94" y2="440.82" fill="none" stroke="#293d39" stroke-miterlimit="10"/><path d="M722.54,442.27c-.61.73-1.79.55-2.13-.34-1.7-4.48-4.78-16.78,3.1-34.63,6.56-14.86,9.9-22.41,11.43-25.87.44-.99,1.85-.99,2.28,0,2.61,5.96,8.39,21.15,4.52,31.32-4.04,10.63-15.38,24.86-19.22,29.51Z" fill="#c2c155" stroke-width="0"/><path d="M736.09,383.17s-.59,24.76-14.33,57.92" fill="none" stroke="#293d39" stroke-miterlimit="10"/><polyline points="704.76 421.63 710.6 430.27 746.16 544.27" fill="none" stroke="#293d39" stroke-miterlimit="10"/><path d="M706.15,422.37c0,.95-1.04,1.56-1.86,1.08-4.16-2.39-14.33-9.96-19.51-28.76-4.32-15.65-6.51-23.61-7.51-27.25-.29-1.05.8-1.93,1.77-1.44,5.79,2.96,19.89,11.07,23.33,21.37,3.6,10.78,3.82,28.96,3.78,34.99Z" fill="#c2c155" stroke-width="0"/><path d="M679.25,368.07s15.21,19.54,25.55,53.88" fill="none" stroke="#293d39" stroke-miterlimit="10"/><path d="M721.39,505.74c.93-.2,1.31-1.33.68-2.04-3.2-3.57-12.69-11.97-32.17-13.19-16.21-1.01-24.46-1.53-28.23-1.76-1.09-.07-1.73,1.18-1.05,2.03,4.09,5.06,14.92,17.18,25.72,18.43,11.29,1.31,29.15-2.2,35.05-3.47Z" fill="#c2c155" stroke-width="0"/><path d="M662.68,490.56s22.26,10.87,58.01,13.94" fill="none" stroke="#293d39" stroke-miterlimit="10"/><line x1="727.71" y1="484.43" x2="708.86" y2="477.83" fill="none" stroke="#293d39" stroke-miterlimit="10"/><path d="M709.74,479.13c.95-.1,1.44-1.19.89-1.96-2.81-3.89-11.38-13.22-30.63-16.45-16.02-2.69-24.17-4.05-27.89-4.67-1.07-.18-1.84,1-1.25,1.91,3.54,5.45,13.06,18.64,23.67,21,11.1,2.47,29.22.82,35.22.17Z" fill="#c2c155" stroke-width="0"/><path d="M652.93,457.96s21.01,13.12,56.25,19.87" fill="none" stroke="#293d39" stroke-miterlimit="10"/><line x1="717.64" y1="452.83" x2="705.48" y2="442.66" fill="none" stroke="#293d39" stroke-miterlimit="10"/><path d="M705.92,444.44c1.08.27,2.06-.72,1.76-1.79-1.5-5.39-7.11-19.06-26.85-30.36-16.43-9.4-24.79-14.18-28.61-16.36-1.1-.63-2.42.35-2.14,1.58,1.67,7.4,6.75,25.66,17.4,32.53,11.14,7.18,31.62,12.69,38.44,14.4Z" fill="#c2c155" stroke-width="0"/><path d="M705.83,442.79c-35.81-21.61-53.48-44.44-53.48-44.44" fill="#527f34" stroke-width="0"/><path d="M358.87,399.17c-4.85-7.1-10.15-14.18-17.43-18.76-7.27-4.58-16.97-6.22-24.49-2.05-8.24,4.58-11.79,15.01-10.85,24.39.93,9.38,5.5,17.96,10.17,26.14,21.52,37.69,47.25,72.97,76.54,104.99,2.63,2.87,5.4,5.8,8.99,7.33,3.59,1.52,8.23,1.26,10.82-1.64,3.5-3.92-4.62-25.31-5.88-30.83-2.97-12.93-6.74-25.68-11.28-38.15-9.17-25.2-21.47-49.27-36.59-71.42Z" fill="#4b772f" stroke-width="0"/><path d="M332.53,405.44s73.27,127.61,77.85,142.24l4.58,14.64" fill="none" stroke="#355722" stroke-miterlimit="10"/><path d="M292,457.65c-7.86-3.48-16.1-6.7-24.69-6.77-8.6-.06-17.71,3.65-21.89,11.16-4.59,8.23-2.11,18.97,3.62,26.45,5.73,7.48,14.14,12.37,22.42,16.86,38.15,20.7,78.6,37.14,120.37,48.92,3.75,1.06,7.65,2.09,11.5,1.49,3.85-.59,7.66-3.26,8.33-7.09.91-5.18-17.26-19.08-21.24-23.1-9.34-9.43-19.26-18.27-29.69-26.48-21.07-16.59-44.2-30.57-68.73-41.44Z" fill="#5c893f" stroke-width="0"/><path d="M272.91,476.85s129.5,69.87,141.11,79.9l11.61,10.03" fill="none" stroke="#355722" stroke-miterlimit="10"/><path d="M454.09,429.02c.14-8.6-.11-17.44-3.4-25.38-3.3-7.94-10.27-14.88-18.82-15.8-9.37-1.01-18.29,5.46-22.94,13.65-4.65,8.2-5.87,17.84-6.78,27.22-4.18,43.2-3.54,86.86,1.9,129.91.49,3.87,1.06,7.86,3.11,11.17,2.05,3.31,5.99,5.78,9.78,4.9,5.12-1.18,10.84-23.33,12.99-28.57,5.04-12.27,9.31-24.86,12.8-37.66,7.05-25.87,10.9-52.62,11.35-79.44Z" fill="#77ad55" stroke-width="0"/><path d="M428.96,418.93s-13.82,146.5-18.53,161.09l-4.71,14.6" fill="none" stroke="#355722" stroke-miterlimit="10"/><path d="M475.82,476.59l31.84-7.18-36.38-10.24s-2.1-15.46,0-24.69l2.1-9.23,38.93,11.15-32.21-30.36s13.6-21.72,44.31-24.85l17.66,52.23,3.4-55.1s28.19-3.08,49.02,5.78l-15.13,46.24,30.99-39.95s33.55,10.6,43.07,39.95l-25.23,16.14,24.17,9.01s-15.66,19.84-27.49,27.1l-22.58-12.02,7.06,20.74s-11.53,5.01-26.44,7.17c-14.91,2.16-13.15,2.66-13.15,2.66l-4.98-9.27-3.34,9.4s-44.07,14.17-85.61-24.68Z" fill="#527f34" stroke-width="0"/><polyline points="471.27 440.16 551.15 477.92 500.31 388.46" fill="none" stroke="#355722" stroke-miterlimit="10"/><polyline points="563.13 378.06 551.15 477.92 635.96 408.12" fill="none" stroke="#355722" stroke-miterlimit="10"/><polyline points="620.97 394.73 551.15 477.92 489.06 487.66" fill="none" stroke="#355722" stroke-miterlimit="10"/><line x1="552.88" y1="502.26" x2="551.15" y2="477.92" fill="none" stroke="#355722" stroke-miterlimit="10"/><path d="M462.29-.43s-29.68,9.33-36.48,32.09c0,0,9.81,6.67,28.29,3.36l18.48-3.31s-5.83,11.25-2.57,24.43c0,0,13.12-6.39,17.92-13.27l4.8-6.88s5.95,14.78,10.48,24.96c0,0,17.38-15.84,24.67-25.54l7.29-9.7s-6.02,26.2,1.49,42.24c0,0,15.22-11.83,19.94-19.96l4.71-8.14s-6.15,2.69,6.67,12.86c12.82,10.17,9.76,4.7,9.76,4.7,0,0,10.84-7.23,10.49-14.54-.35-7.31,0-22.36,0-22.36,0,0,4.6,12.04,16.06,27.48,11.45,15.44,13.17,16.27,13.17,16.27,0,0,22.19-22.26,22.88-34.69.32-5.68.49-8.77.58-10.44l.11-1.99s14.89,26.24,25.82,30.85l10.93,4.61s5.14-11.7,10.29-17.58l5.14-5.88s-4.65,26.52.41,38.81c0,0,17.92-5.39,28.84-14.39,10.93-9,22.5-16.81,33.43-44.08l10.93-27.28L462.29-.43Z" fill="#659549" stroke-width="0"/><path d="M-56.27,11.91s-26.81,15.79-28.3,39.5c0,0,11.07,4.28,28.32-3.12l17.25-7.4s-3.14,12.28,3.01,24.38c0,0,11.34-9.19,14.46-16.97l3.12-7.78s9.13,13.05,15.84,21.95c0,0,13.36-19.36,18.26-30.45l4.91-11.1s.05,26.88,10.99,40.82c0,0,12.16-14.96,14.92-23.95l2.76-8.99s-5.38,4.01,9.4,11.02c14.78,7.01,10.56,2.38,10.56,2.38,0,0,8.93-9.49,6.94-16.53-1.99-7.04-5.05-21.78-5.05-21.78,0,0,7.2,10.69,21.84,23.14,14.64,12.45,16.5,12.88,16.5,12.88,0,0,16.59-26.7,14.45-38.96-.97-5.61-1.5-8.65-1.79-10.3l-.34-1.96s20.43,22.2,32.12,24.22l11.69,2.03s2.37-12.56,6.05-19.45l3.68-6.89s1.45,26.89,9.16,37.72c0,0,16.24-9.29,24.85-20.53s18.12-21.45,22.61-50.49l4.49-29.04L-56.27,11.91Z" fill="#659549" stroke-width="0"/><path d="M118.67-17.61c14.22,16.44,29.7,31.83,46.1,46.05,16.37,14.25,33.72,27.37,52.07,38.78,9.18,5.69,18.64,10.92,28.37,15.53,4.85,2.33,9.77,4.51,14.77,6.48,4.98,2.01,10.04,3.81,15.15,5.41,20.42,6.4,41.87,9.61,63.06,7.83,5.28-.47,10.54-1.19,15.74-2.22,2.62-.53,5.25-1.17,7.87-1.73l3.94-.87,3.91-1.01c10.46-2.56,20.73-5.9,30.88-9.5l7.58-2.82,7.51-3.02c2.51-.98,4.98-2.07,7.45-3.15,2.46-1.1,4.97-2.11,7.39-3.3,9.83-4.47,19.39-9.53,28.85-14.76,9.46-5.24,18.7-10.89,27.73-16.86,9.05-5.94,17.92-12.18,26.56-18.73,8.65-6.54,17.11-13.33,25.32-20.43,4.11-3.55,8.16-7.16,12.14-10.85,3.98-3.68,7.92-7.45,11.65-11.32l2.17,1.93c-7.21,8.35-14.95,16.07-22.93,23.61-8.01,7.48-16.29,14.68-24.84,21.57-17.11,13.74-35.17,26.36-54.21,37.39-19.02,11.05-38.95,20.62-59.68,28.19-10.39,3.7-20.89,7.14-31.62,9.78l-4.01,1.04-4.04.9c-2.7.59-5.38,1.21-8.11,1.75-5.51,1.05-11.07,1.78-16.65,2.24-22.37,1.72-44.88-1.74-65.91-8.75-5.27-1.73-10.47-3.67-15.58-5.81-5.12-2.11-10.15-4.42-15.09-6.88-4.96-2.44-9.8-5.09-14.58-7.84-4.78-2.74-9.47-5.64-14.09-8.64-9.24-5.99-18.15-12.44-26.74-19.29-8.6-6.83-16.93-13.98-24.92-21.48-8-7.49-15.72-15.26-23.16-23.29-7.44-8.03-14.6-16.3-21.25-25.01l1.18-.93Z" fill="#293d39" stroke-width="0"/><path d="M333.96-41.2c14.22,16.44,29.7,31.83,46.1,46.05,16.37,14.25,33.72,27.37,52.07,38.78,9.18,5.69,18.64,10.92,28.37,15.53,4.85,2.33,9.77,4.51,14.77,6.48,4.98,2.01,10.04,3.81,15.15,5.41,20.42,6.4,41.87,9.61,63.06,7.83,5.28-.47,10.54-1.19,15.74-2.22,2.62-.53,5.25-1.17,7.87-1.73l3.94-.87,3.91-1.01c10.46-2.56,20.73-5.9,30.88-9.5l7.58-2.82,7.51-3.02c2.51-.98,4.98-2.07,7.45-3.15,2.46-1.1,4.97-2.11,7.39-3.3,9.83-4.47,19.39-9.53,28.85-14.76,9.46-5.24,18.7-10.89,27.73-16.86,9.05-5.94,17.92-12.18,26.56-18.73,8.65-6.54,17.11-13.33,25.32-20.43,4.11-3.55,8.16-7.16,12.14-10.85,3.98-3.68,7.92-7.45,11.65-11.32l2.17,1.93c-7.21,8.35-14.95,16.07-22.93,23.61-8.01,7.48-16.29,14.68-24.84,21.57-17.11,13.74-35.17,26.36-54.21,37.39-19.02,11.05-38.95,20.62-59.68,28.19-10.39,3.7-20.89,7.14-31.62,9.78l-4.01,1.04-4.04.9c-2.7.59-5.38,1.21-8.11,1.75-5.51,1.05-11.07,1.78-16.65,2.24-22.37,1.72-44.88-1.74-65.91-8.75-5.27-1.73-10.47-3.67-15.58-5.81-5.12-2.11-10.15-4.42-15.09-6.88-4.96-2.44-9.8-5.09-14.58-7.84-4.78-2.74-9.47-5.64-14.09-8.64-9.24-5.99-18.15-12.44-26.74-19.29-8.6-6.83-16.93-13.98-24.92-21.48-8-7.49-15.72-15.26-23.16-23.29-7.44-8.03-14.6-16.3-21.25-25.01l1.18-.93Z" fill="#659549" stroke-width="0"/><path d="M-203.29,37.06c15.45,17.83,32.34,34.45,50.31,49.66,17.94,15.25,37.02,29.16,57.34,40.82,10.17,5.81,20.66,11.01,31.43,15.48,10.79,4.4,21.88,8.05,33.21,10.54,2.82.66,5.68,1.16,8.52,1.7,2.86.45,5.71.93,8.59,1.24,5.74.67,11.5,1.11,17.27,1.11,5.76,0,11.53-.24,17.24-.92,5.72-.69,11.36-1.68,17.02-3.01,22.61-5.2,44.17-14.68,64.34-26.42,20.23-11.71,39.08-25.83,56.91-41.1,4.45-3.84,8.83-7.75,13.15-11.74,4.31-4,8.55-8.07,12.76-12.19,8.4-8.25,16.51-16.78,24.42-25.52,15.85-17.43,30.76-35.81,44.45-54.96l2.44,1.59c-3.19,5.06-6.52,9.95-9.92,14.83-3.42,4.85-6.94,9.64-10.52,14.38-7.16,9.48-14.59,18.76-22.29,27.82-15.48,18.05-32,35.26-49.85,51.09-17.8,15.87-36.97,30.32-57.59,42.57-20.64,12.15-42.92,21.95-66.5,27.44-5.87,1.36-11.91,2.37-17.94,3.06-6.04.68-12.13.9-18.2.85-6.07-.04-12.13-.53-18.13-1.28-3.01-.35-5.99-.87-8.98-1.36-2.97-.58-5.94-1.15-8.87-1.87-23.52-5.59-45.72-15.5-66.18-27.85-5.13-3.07-10.16-6.3-15.1-9.66-4.94-3.36-9.8-6.82-14.54-10.43-9.49-7.22-18.65-14.85-27.46-22.84-8.78-8.03-17.24-16.39-25.36-25.06-8.14-8.66-15.94-17.6-23.16-27.06l1.18-.93Z" fill="#659549" stroke-width="0"/><path d="M427.51,103.72c-3.49,5.72-.61,14.85,6,15.94l-23.74,9.53c-6,2.41-6.55,10.69-.91,13.87l12.6,7.1c-8.72,8.56-12.24,22.04-8.8,33.77l14.83-10.02c-3.06,7.14,4.11,15.99,11.86,15.39,7.75-.6,13.48-9.12,12.14-16.77l10.87,11.31,8.55-19.73c2.5,5.65,10.63,7.82,15.62,4.17s5.39-12.05.77-16.15c5.47,1.94,11.13,3.75,16.93,3.61s11.85-2.57,14.94-7.48c3.08-4.92,2.09-12.41-2.94-15.31,7.17-.4,14.33-.8,21.5-1.2,3.53-.2,7.28-.45,9.53-4.24,1.54-2.59,1.71-5.82.54-8.6-2.22-5.27-8-7.87-13.55-8.1-4.96-.21-9.84,1.19-14.61,2.58l-.19-16.19c-.1-8.65-8.86-14.51-16.89-11.29l-17.21,6.88s-6.09-3.7-7.05-3.93c-2.66-.61-5.5-.47-8.07.48-5.17,1.91-6.94,8.71-11.57,10.37-5.07,1.81-11.36-3.14-16.84-3.05-5.5.09-11.32,2.2-14.3,7.09Z" fill="#e5dec1" stroke-width="0"/><path d="M709.84,11.26c-2.87,1.16-4.83,3.98-5.63,6.98-.8,2.99-.59,6.16-.18,9.23.53,3.95,1.4,7.85,2.59,11.65,7.02-4.09,11.39-12.93,9.91-20.92-.72-3.88-2.86-6.02-6.7-6.93Z" fill="#c2c155" stroke-width="0"/><path d="M483.98,7.2c-2.15.12-4.07,1.54-5.27,3.33s-1.77,3.92-2.18,6.04c-.53,2.72-.83,5.49-.9,8.26,5.54-1.12,10.4-5.96,11.21-11.56.39-2.72-.53-4.6-2.86-6.07Z" fill="#c2c155" stroke-width="0"/><path d="M39.39,11.7c-1.59,1.45-2.18,3.77-1.98,5.91.2,2.14,1.1,4.16,2.12,6.06,1.3,2.45,2.82,4.78,4.51,6.97,3.59-4.37,4.3-11.19,1.4-16.04-1.41-2.36-3.32-3.23-6.05-2.9Z" fill="#416d24" stroke-width="0"/><path d="M681.02,81.95c-3.4.19-6.44,2.44-8.34,5.28-1.89,2.84-2.8,6.21-3.46,9.56-.84,4.3-1.32,8.68-1.43,13.07,8.77-1.77,16.46-9.44,17.75-18.3.62-4.31-.84-7.28-4.52-9.6Z" fill="#527f34" stroke-width="0"/><path d="M235.57,366.55c-1.07,3.24-.09,6.89,1.86,9.69,1.95,2.8,4.75,4.88,7.63,6.71,3.7,2.36,7.6,4.41,11.64,6.11,1.56-8.81-2.76-18.78-10.53-23.21-3.78-2.16-7.09-1.88-10.59.7Z" fill="#527f34" stroke-width="0"/><path d="M154.88,126.84c-1.07,3.24-.09,6.89,1.86,9.69s4.75,4.88,7.63,6.71c3.7,2.36,7.6,4.41,11.64,6.11,1.56-8.81-2.76-18.78-10.53-23.21-3.78-2.16-7.09-1.88-10.59.7Z" fill="#527f34" stroke-width="0"/></g></g></g></svg>