<?xml version="1.0" encoding="UTF-8"?><svg id="a" xmlns="http://www.w3.org/2000/svg" width="73" height="73" viewBox="0 0 73 73"><path d="M72.44,36.5c0,19.85-16.09,35.94-35.94,35.94S.56,56.35.56,36.5,16.65.56,36.5.56s35.94,16.09,35.94,35.94Z" fill="#ff6994" stroke-width="0"/><text transform="translate(30.65 11.44)" fill="#000" font-family="Verdana, Verdana" font-size="10"><tspan x="0" y="0">P1</tspan></text><path d="M36.49,57.39c-1.65.73-3.12,2.02-4.73,2.84,1.11,1.06,3.6.02,4.73.07v-2.91h0Z" fill="#a19b9c" stroke-width="0"/><path d="M36.49,57.39v2.91s0,0,.01,0c1.32-.06,3.61.99,4.71-.07-1.61-.82-3.08-2.11-4.73-2.84Z" fill="#928e8f" stroke-width="0"/><path d="M36.49,18.44h0c-1.16-.08-3.56.06-4.59.37-3.17.79-4.76,2.93-6.9,5.23-1.15,1.21-2.93,3.18-3.91,4.27-.37.41-.62.7-.69.77-.23.25,0,0,0,0-4.28,4.68-2.62,9.28-1.35,14.75.25,1.14.37,2.3.44,3.46.71,2.18,2.28,4.08,3.23,6.18-.09-.87-.12-1.75-.15-2.6.24-3.57-1.31-8.61-1.67-12.18-.36-3.21-.65-4.54.18-7.56.48-.83,1.07-1.67,1.84-2.32,1.73-1.55,1.99-1.84,4.15-2.81,1.97-.35,3.24-.05,5.21,1.74,2.2,2.42,2.89,7.36,2.29,10.57-.36,1.55-.84,3.05-2.31,3.81-.32,1.23,3.37,1.29,4.22,1.3h0v-24.99h0Z" fill="#6d5147" stroke-width="0"/><path d="M52.6,29.09s.23.25,0,0c-.06-.07-.32-.36-.69-.77-.98-1.09-2.76-3.06-3.91-4.27-2.14-2.3-3.73-4.44-6.9-5.23-1.03-.32-3.43-.45-4.59-.38h0s0,0,0,0c0,0,0,0,0,0,0,0,0,0,0,0,0,0,0,0,0,0v24.99c.85,0,4.54-.07,4.22-1.3-1.47-.75-1.95-2.26-2.31-3.81-.59-3.21.09-8.14,2.29-10.57,1.96-1.79,3.24-2.08,5.21-1.74,2.15.96,2.42,1.26,4.15,2.81.77.65,1.37,1.49,1.84,2.32.83,3.01.54,4.34.18,7.56-.36,3.57-1.9,8.61-1.67,12.18-.03.85-.06,1.73-.15,2.6.96-2.13,2.57-4.06,3.26-6.28.07-1.13.19-2.25.44-3.36,1.27-5.47,2.93-10.07-1.35-14.75Z" fill="#62483f" stroke-width="0"/><path d="M36.49,14.73c-6.33-.03-10.2,2.19-13.03,6.04-.97,1.32-2.63,5-4.28,5.3-.01,0-.03,0-.04,0-4.01.32-5.43,3.01-6.07,4.44-1.27,2.86-1.78,5.79-2.74,8.65-.71,2.06-1.98,3.89-2.14,6.11-.32,2.46.87,4.6,2.06,6.66,1.9,3.49,5.47,4.52,8.01,7.38,1.19,1.27,1.82,3.33,3.17,4.52.87.63,1.43-.08,1.67-1.03.4-1.43-1.11-2.93-1.74-4.05-2.02-3.55-1.63-7.52-1.86-11.45.71,2.18,2.28,4.08,3.23,6.18.31,3.14,1.28,6.16,4.73,7.28,1.64.48,3.02.12,4.31-.54,1.11,1.06,3.6.02,4.73.07V14.73h0Z" fill="none" stroke-width="0"/><path d="M36.5,60.3c1.32-.06,3.61.99,4.71-.07,1.29.66,2.67,1.01,4.31.54,3.45-1.12,4.41-4.14,4.73-7.28.96-2.13,2.57-4.06,3.26-6.28-.24,3.96.17,7.97-1.86,11.55-.63,1.11-2.14,2.62-1.75,4.05.24.95.79,1.67,1.67,1.03,1.35-1.19,1.98-3.25,3.17-4.52,2.54-2.86,6.11-3.89,8.01-7.38,1.19-2.06,2.38-4.2,2.06-6.66-.16-2.22-1.43-4.05-2.14-6.11-.95-2.86-1.47-5.79-2.74-8.65-.63-1.43-2.06-4.12-6.07-4.44-.01,0-.03,0-.04,0-1.65-.29-3.31-3.98-4.28-5.3-2.83-3.84-6.71-6.07-13.03-6.04h0s0,0,0,0c0,0,0,0,0,0s0,0,0,0c0,0,0,0,0,0v45.57s0,0,.01,0Z" fill="none" stroke-width="0"/><path d="M34.13,52.24c.86-.09,1.96-1.13.54-1.34-.64-.1-1.48.47-2.14.46.17.29.36.6.58.87.33,0,.67.03,1.02,0Z" fill="#201019" stroke-width="0"/><path d="M31.15,34.52c-.79-1.31-2.42-3.73-3.73-4.44-3.19.61-4.98,3.88-4.48,5.39.16-1.51,1.35-3.13,2.66-3.89.44-.24.87-.52,1.39-.36.73.81,1.3,1.48,1.79,2.32.18.31.35.64.51,1.01.12.36.32.75.4,1.07-.12,1.03-1.59,2.3-2.46,2.78,1.43.2,2.97-.56,3.85-1.59.24-.28.44-.59.59-.95-.12-.44-.28-.95-.52-1.35Z" fill="#6f4035" stroke-width="0"/><path d="M38.3,50.9c-1.43.21-.33,1.25.54,1.34.35.02.69-.01,1.02,0,.22-.27.42-.58.58-.87-.66.01-1.5-.55-2.14-.46Z" fill="#110007" stroke-width="0"/><path d="M45.55,30.08c-1.31.71-2.93,3.13-3.73,4.44-.24.4-.4.91-.52,1.35.16.36.36.67.59.95.87,1.03,2.42,1.78,3.85,1.59-.87-.48-2.34-1.74-2.46-2.78.08-.32.28-.71.4-1.07.16-.37.33-.7.51-1.01.49-.84,1.07-1.51,1.79-2.32.52-.16.95.12,1.39.36,1.31.75,2.5,2.38,2.66,3.89.5-1.51-1.29-4.78-4.48-5.39Z" fill="#62382e" stroke-width="0"/><path d="M45.55,30.08c-1.31.71-2.93,3.13-3.73,4.44-.24.4-.4.91-.52,1.35.16.36.36.67.59.95.87,1.03,2.42,1.78,3.85,1.59,1.31,0,2.99-1.15,3.85-2.25.19-.24.34-.47.43-.69.5-1.51-1.29-4.78-4.48-5.39Z" fill="none" stroke-width="0"/><path d="M32.14,51.26c.12.07.25.1.39.1.17.29.36.6.58.87-.07,0-.13,0-.2,0,0,1.82,1.89,2.53,3.57,2.53s3.57-.7,3.57-2.53c-.07,0-.13,0-.2,0,.22-.27.42-.58.58-.87.14,0,.27-.03.39-.1.63-.37.98-1.03.9-1.76-.04-.02-.08-.03-.11-.05.04.02.08.03.11.05,0-.03,0-.06,0-.09-.22-1.52-2.94-2.26-5.24-2.26-2.3,0-5.02.74-5.24,2.26,0,.03,0,.05,0,.08.04-.02.07-.03.11-.05-.04.02-.08.03-.11.05-.08.73.27,1.39.9,1.76Z" fill="none" stroke-width="0"/><path d="M31.07,36.82c.24-.28.44-.59.59-.95-.12-.44-.28-.95-.52-1.35-.79-1.31-2.42-3.73-3.73-4.44-3.19.61-4.98,3.88-4.48,5.39.1.22.25.45.43.69.86,1.09,2.54,2.25,3.85,2.25,1.43.2,2.97-.56,3.85-1.59Z" fill="none" stroke-width="0"/><path d="M31.11,40.28c1.24-.91,2.63-1.82,3.62-3.04.28-3.15-.48-7.31-2.44-9.48-1.96-1.79-3.24-2.08-5.21-1.74-2.15.96-2.42,1.26-4.15,2.81-.77.65-1.37,1.49-1.84,2.32-.83,3.01-.54,4.34-.18,7.56.36,3.57,1.9,8.61,1.67,12.18,0,.05,0,.1,0,.15.45-4.81,4.89-8.03,8.53-10.77ZM23.37,36.16c-.19-.24-.34-.47-.43-.69-.5-1.51,1.29-4.78,4.48-5.39,1.31.71,2.93,3.13,3.73,4.44.24.4.4.91.52,1.35-.16.36-.36.67-.59.95-.87,1.03-2.42,1.78-3.85,1.59-1.31,0-2.99-1.15-3.85-2.25Z" fill="#b98b70" stroke-width="0"/><path d="M36.49,54.77c-1.68,0-3.57-.7-3.57-2.53.07,0,.13,0,.2,0-.22-.27-.42-.58-.58-.87-.14,0-.27-.03-.39-.1-.63-.37-.98-1.03-.9-1.76-3.83,1.63-6.44,6.28-2.91,9.58.84.76,1.97,1.39,3.11,1.31.11-.05.21-.1.32-.15,1.61-.82,3.08-2.11,4.73-2.84h0s0-2.62,0-2.62h0Z" fill="#cecec6" stroke-width="0"/><path d="M41.73,49.5c.07.73-.27,1.38-.9,1.76-.12.07-.25.1-.39.1-.17.29-.36.6-.58.87.07,0,.13,0,.2,0,0,1.82-1.89,2.53-3.57,2.53v2.62c1.65.73,3.12,2.02,4.73,2.84.11.06.23.11.34.16,1.13.08,2.25-.55,3.08-1.31,3.53-3.3.92-7.95-2.91-9.58Z" fill="#bcbcb5" stroke-width="0"/><path d="M51.89,31.15c-.48-.83-1.07-1.67-1.84-2.32-1.73-1.55-1.99-1.84-4.15-2.81-1.97-.35-3.24-.05-5.21,1.74-1.97,2.17-2.72,6.33-2.44,9.49.99,1.22,2.38,2.13,3.62,3.04,3.64,2.73,8.08,5.95,8.53,10.76,0-.05,0-.11,0-.16-.24-3.57,1.31-8.61,1.67-12.18.36-3.21.66-4.54-.18-7.56ZM50.03,35.48c-.1.22-.25.45-.43.69-.86,1.09-2.54,2.25-3.85,2.25-1.43.2-2.97-.56-3.85-1.59-.24-.28-.44-.59-.59-.95.12-.44.28-.95.52-1.35.79-1.31,2.42-3.73,3.73-4.44,3.19.61,4.98,3.88,4.48,5.39Z" fill="#a98067" stroke-width="0"/><path d="M36.49,43.44c-.85,0-4.54-.07-4.22-1.3,1.47-.75,1.95-2.26,2.31-3.81.06-.35.11-.71.15-1.09-.99,1.22-2.38,2.13-3.62,3.04-3.64,2.73-8.08,5.96-8.53,10.77.03.8.06,1.63.14,2.44.31,3.14,1.28,6.16,4.73,7.28,1.51.44,2.79.17,3.99-.38-1.14.09-2.27-.55-3.11-1.31-3.53-3.3-.92-7.95,2.91-9.58,0-.03,0-.05,0-.08.22-1.52,2.94-2.26,5.24-2.26h0v-3.72h0Z" fill="#bcbcb5" stroke-width="0"/><path d="M41.86,40.28c-1.23-.91-2.63-1.82-3.62-3.04.03.38.08.74.15,1.08.36,1.55.84,3.05,2.31,3.81.32,1.23-3.36,1.29-4.22,1.3v3.72c2.3,0,5.02.74,5.24,2.26,0,.03,0,.06,0,.09,3.83,1.63,6.44,6.28,2.91,9.58-.83.75-1.95,1.39-3.08,1.31,1.19.55,2.47.81,3.97.37,3.45-1.12,4.41-4.14,4.73-7.28.08-.81.12-1.64.14-2.44-.45-4.81-4.89-8.03-8.53-10.76Z" fill="#abaca5" stroke-width="0"/><path d="M36.49,47.15c-2.3,0-5.02.74-5.24,2.26-.11.77.24,1.46.89,1.84.12.07.25.1.39.1.66.01,1.5-.55,2.14-.46,1.43.21.33,1.25-.54,1.34-.35.02-.69-.01-1.02,0-.07,0-.13,0-.2,0,0,1.82,1.89,2.53,3.57,2.53h0v-7.61h0Z" fill="#34222e" stroke-width="0"/><path d="M41.73,49.42c-.22-1.52-2.94-2.26-5.24-2.26v7.61c1.68,0,3.57-.7,3.57-2.53-.07,0-.13,0-.2,0-.33,0-.67.03-1.02,0-.86-.09-1.96-1.13-.54-1.34.64-.1,1.48.47,2.14.46.14,0,.27-.03.39-.1.65-.39,1.01-1.08.89-1.84Z" fill="#291723" stroke-width="0"/><path d="M27.87,33.81c-.87.29-1.79.71-2.63,1.18.6,1.35,2.63,1.62,3.3.57.19-.57-.31-1.27-.66-1.74Z" fill="#201019" stroke-width="0"/><path d="M29.28,34.56c-.16-.37-.33-.7-.51-1.01-.29.07-.6.15-.91.26.36.48.85,1.17.66,1.74-.67,1.06-2.7.78-3.3-.57-.7.38-1.34.79-1.86,1.18.86,1.09,2.54,2.25,3.85,2.25.87-.48,2.34-1.74,2.46-2.78-.08-.32-.28-.71-.4-1.07Z" fill="#562f26" stroke-width="0"/><path d="M26.98,31.23c-.52-.16-.95.12-1.39.36-1.31.75-2.5,2.38-2.66,3.89.1.22.25.45.43.69.52-.39,1.16-.8,1.86-1.18.84-.46,1.76-.88,2.63-1.18.31-.1.62-.19.91-.26-.49-.84-1.07-1.51-1.79-2.32Z" fill="#795347" stroke-width="0"/><path d="M47.74,34.99c-.6,1.35-2.63,1.62-3.3.57-.19-.57.31-1.27.66-1.74-.31-.1-.62-.19-.91-.26-.18.31-.35.64-.51,1.01-.12.36-.32.75-.4,1.07.12,1.03,1.59,2.3,2.46,2.78,1.31,0,2.99-1.15,3.85-2.25-.52-.39-1.16-.8-1.86-1.18Z" fill="#49261d" stroke-width="0"/><path d="M47.38,31.59c-.44-.24-.87-.52-1.39-.36-.73.81-1.3,1.48-1.79,2.32.29.07.6.15.91.26.87.29,1.79.71,2.63,1.18.7.38,1.34.79,1.86,1.18.19-.24.34-.47.43-.69-.16-1.51-1.35-3.13-2.66-3.89Z" fill="#6c4a3f" stroke-width="0"/><path d="M45.1,33.81c-.36.48-.85,1.17-.66,1.74.66,1.06,2.7.78,3.3-.57-.84-.46-1.76-.88-2.63-1.18Z" fill="#110007" stroke-width="0"/><path d="M21.35,58.76c-2.02-3.55-1.63-7.52-1.86-11.45-.07-1.16-.19-2.32-.44-3.46-1.27-5.47-2.93-10.07,1.35-14.75,0,0-.23.25,0,0,.06-.07.32-.36.69-.77,0-1.05-.98-2.02-1.91-2.26-.01,0-.03,0-.04,0-4.01.32-5.43,3.01-6.07,4.44-1.27,2.86-1.78,5.79-2.74,8.65-.71,2.06-1.98,3.89-2.14,6.11-.32,2.46.87,4.6,2.06,6.66,1.9,3.49,5.47,4.52,8.01,7.38,1.19,1.27,1.82,3.33,3.17,4.52.87.63,1.43-.08,1.67-1.03.4-1.43-1.11-2.93-1.74-4.05Z" fill="#4a3437" stroke-width="0"/><path d="M36.49,14.73h0c-6.33-.03-10.2,2.19-13.03,6.04-.97,1.32-2.63,5-4.28,5.3.94.24,1.92,1.21,1.91,2.26.98-1.09,2.76-3.06,3.91-4.27,2.14-2.3,3.73-4.44,6.9-5.23,1.03-.32,3.43-.45,4.59-.38h0s0,0,0,0v-3.71h0Z" fill="#806055" stroke-width="0"/><path d="M49.55,20.77c-2.83-3.84-6.71-6.07-13.03-6.04h0s0,0,0,0c0,0,0,0,0,0s0,0,0,0c0,0,0,0,0,0v3.71s0,0,0,0c0,0,0,0,0,0,0,0,0,0,0,0,0,0,0,0,0,0h0c1.16-.08,3.56.06,4.59.37,3.17.79,4.76,2.93,6.9,5.23,1.15,1.21,2.93,3.18,3.91,4.27,0-1.05.98-2.02,1.91-2.26-1.65-.29-3.31-3.98-4.28-5.3Z" fill="#74574d" stroke-width="0"/><path d="M64.82,45.27c-.16-2.22-1.43-4.05-2.14-6.11-.95-2.86-1.47-5.79-2.74-8.65-.63-1.43-2.06-4.12-6.07-4.44-.01,0-.03,0-.04,0-.94.24-1.92,1.21-1.91,2.26.37.41.62.7.69.77.23.25,0,0,0,0,4.28,4.68,2.62,9.28,1.35,14.75-.25,1.11-.37,2.23-.44,3.36-.24,3.96.17,7.97-1.86,11.55-.63,1.11-2.14,2.62-1.75,4.05.24.95.79,1.67,1.67,1.03,1.35-1.19,1.98-3.25,3.17-4.52,2.54-2.86,6.11-3.89,8.01-7.38,1.19-2.06,2.38-4.2,2.06-6.66Z" fill="#3f2b2e" stroke-width="0"/></svg>