<?xml version="1.0" encoding="UTF-8"?><svg id="a" xmlns="http://www.w3.org/2000/svg" width="73" height="73" viewBox="0 0 73 73"><path d="M72.44,36.5c0,19.85-16.09,35.94-35.94,35.94S.56,56.35.56,36.5,16.65.56,36.5.56s35.94,16.09,35.94,35.94Z" fill="#ff6994" stroke-width="0"/><text transform="translate(30.65 11.44)" fill="#000" font-family="Verdana, Verdana" font-size="10"><tspan x="0" y="0">P1</tspan></text><path d="M58.66,14.96c-.55-.22-1.44-.35-2.06-.35-3.6-.18-6.35,2.89-9.03,4.89.57.49,1.09,1.03,1.57,1.6.01.01.02.03.03.04,1.19,1.44,2.13,3.08,3.15,4.77.56.89,1.07,1.72,1.52,2.54.01.02.02.04.03.06.61,1.11,1.12,2.18,1.49,3.31.44-.64,1.36-3.91,1.65-4.83,1.17-3.81,5.01-8.35,1.66-12.04Z" fill="#e6c73c" stroke-width="0"/><path d="M15.32,14.67c-.62,0-1.51.13-2.06.35-3.35,3.68.48,8.22,1.66,12.04.29.91,1.21,4.19,1.65,4.83.37-1.13.88-2.21,1.49-3.31.01-.02.02-.04.03-.06.46-.82.97-1.65,1.52-2.54,1.02-1.69,1.96-3.34,3.15-4.77.01-.01.02-.03.03-.04.48-.57.99-1.11,1.57-1.6-2.68-2-5.43-5.07-9.03-4.89Z" fill="#ffdc3f" stroke-width="0"/><path d="M35.99,62.57c.43-.55,1.02-1.02,1.57-1.46.61-.5,1.25-.97,1.87-1.45.62-.48,1.3-.96,1.81-1.54.31-.35.17-.67-.28-.73-.06,0-.12.08-.05.11.09.04.18.06.27.1.26.11-.1.49-.17.56-.22.22-.46.42-.7.62-.57.49-1.16.95-1.76,1.4-.92.71-1.92,1.42-2.57,2.38,0,0,0,.01.01,0h0Z" fill="#2ac9d4" stroke-width="0"/><path d="M35.98,58.3c.87.4,1.82.03,2.64-.29.48-.19.97-.37,1.49-.43.4-.04.93-.18,1.23.14.03.03.08,0,.06-.05-.14-.27-.53-.26-.8-.25-.42.02-.85.09-1.25.21-.52.15-1.02.39-1.53.56-.62.21-1.21.25-1.85.09,0,0,0,0,0,0h0Z" fill="#2ac9d4" stroke-width="0"/><path d="M37.61,61.02c.05-.66.56-1.33,1.01-1.8.28-.3.61-.54.98-.74.36-.2,1.04-.52,1.39-.17.05.05.14-.02.1-.07-.24-.3-.65-.21-.97-.1-.48.16-.9.42-1.27.73-.35.3-.67.66-.9,1.04-.19.32-.42.74-.36,1.12,0,.01.02.01.02,0h0Z" fill="#2ac9d4" stroke-width="0"/><path d="M35.99,62.57c-.63-.93-1.58-1.61-2.48-2.3-.59-.46-1.18-.92-1.76-1.4-.25-.21-.49-.42-.73-.64-.12-.11-.24-.23-.3-.38-.11-.27.18-.28.33-.35.07-.03.02-.12-.05-.11-.45.06-.59.38-.28.73.51.58,1.19,1.06,1.81,1.54.62.49,1.26.96,1.87,1.45.54.44,1.14.91,1.57,1.46,0,0,.01,0,.01,0h0Z" fill="#2ac9d4" stroke-width="0"/><path d="M35.98,58.3c-.61.16-1.15.12-1.75-.06-.52-.16-1.02-.39-1.53-.56-.41-.14-.83-.2-1.26-.24-.28-.03-.73-.05-.88.24-.02.04.03.08.06.05.29-.3.79-.2,1.17-.15.51.06.98.22,1.46.4.85.32,1.83.74,2.73.33,0,0,0,0,0,0h0Z" fill="#2ac9d4" stroke-width="0"/><path d="M34.38,61.02c.05-.36-.15-.73-.32-1.05-.21-.39-.53-.74-.86-1.04-.36-.33-.79-.6-1.26-.77-.34-.12-.8-.26-1.06.07-.04.06.05.12.1.07.34-.33.94-.05,1.3.13.41.19.76.48,1.07.79.46.46.97,1.15,1.01,1.8,0,.01.02.01.02,0h0Z" fill="#2ac9d4" stroke-width="0"/><path d="M35.98,66.45c-1.71.04-4.55-.88-5.81-1.91v.07c.13.51.13,1.24.36,1.71.94,1.96,3.34,2.52,5.45,2.56,0,0,0,0,0,0v-2.43h0Z" fill="#e6c73c" stroke-width="0"/><path d="M35.99,66.45v2.43c2.11-.04,4.5-.6,5.44-2.56.22-.47.22-1.2.36-1.71v-.07c-1.26,1.02-4.09,1.95-5.8,1.91Z" fill="#ffdc3f" stroke-width="0"/><path d="M21.95,37.7c-2.02-4.89,1.52-8.69,2.73-13.29.42-1.83.28-3.32-.12-5.04-.65.54-1.23,1.13-1.75,1.76-1.2,1.45-2.15,3.1-3.18,4.81-.56.89-1.07,1.72-1.52,2.54-1.36,2.45-2.22,4.73-2.22,7.83,0,3.36.2,7.59,1.92,10.47,1.72,2.88,5.05,4.61,6.97,7.39.06.08.11.17.15.25.04-.3.09-.6.15-.92.3-1.15.64-2.43,1.35-3.49.91-2.21,2.43-4.71,2.93-7.11.8-4.39-3.39-6.89-7.41-5.21Z" fill="#d3bb33" stroke-width="0"/><path d="M28.81,39.39c-.85-1.4-2.44-2.22-4.24-2.24-.85,0-1.75.16-2.64.53-.01,0-.03.01-.04.02.71.1.37.51.77,1.18,1.01,1.92,1.41,2.69,3.94,3.07.89.08,2.08-.13,2.84.34.09-1.12-.15-2.1-.63-2.9Z" fill="#fff" stroke-width="0"/><path d="M23.78,38.89c0,1.33,1.14,2.41,2.54,2.41,1.22,0,2.24-.82,2.48-1.91-.85-1.4-2.44-2.22-4.24-2.24-.48.44-.78,1.06-.78,1.74Z" fill="#1b1214" stroke-width="0"/><path d="M57.66,15.74c-.62.13-1.24.38-1.82.63-2.38,1.05-5.07,2.74-6.69,4.76,1.19,1.44,2.13,3.08,3.15,4.77.56.89,1.07,1.72,1.52,2.54.01.02.02.04.03.06.49-1.08,1.19-2,1.9-2.96,1.21-1.71,2.56-3.46,2.87-5.59.21-1.34,0-3.09-.97-4.22Z" fill="#0a0001" stroke-width="0"/><path d="M16.07,16.44c-.58-.25-1.2-.51-1.82-.63-.96,1.13-1.17,2.88-.97,4.22.31,2.13,1.66,3.88,2.87,5.59.7.96,1.4,1.88,1.9,2.96.01-.02.02-.04.03-.06.46-.82.97-1.65,1.52-2.54,1.02-1.69,1.96-3.34,3.15-4.77-1.62-2.02-4.31-3.72-6.69-4.76Z" fill="#1b1214" stroke-width="0"/><path d="M53.88,28.48c-.45-.82-.97-1.65-1.52-2.54-1.03-1.71-1.98-3.37-3.18-4.81-.53-.63-1.1-1.22-1.75-1.76-.4,1.71-.54,3.21-.12,5.04,1.21,4.61,4.75,8.4,2.73,13.29-4.02-1.67-8.22.82-7.41,5.21.51,2.4,2.02,4.9,2.93,7.11.71,1.06,1.04,2.34,1.35,3.49.06.32.11.62.15.92.05-.08.1-.17.15-.25,1.92-2.78,5.25-4.51,6.97-7.39,1.72-2.88,1.92-7.11,1.92-10.47,0-3.1-.85-5.38-2.22-7.83Z" fill="#bfaa2d" stroke-width="0"/><path d="M50.05,37.68c-.89-.37-1.79-.54-2.64-.53-1.8.02-3.39.85-4.24,2.24-.48.8-.73,1.78-.63,2.9.76-.47,1.96-.25,2.84-.34,2.53-.38,2.93-1.15,3.94-3.07.4-.67.07-1.08.77-1.18-.01,0-.03-.01-.04-.02Z" fill="#f1f2f2" stroke-width="0"/><path d="M48.19,38.89c0,1.33-1.14,2.41-2.54,2.41-1.22,0-2.24-.82-2.48-1.91.85-1.4,2.44-2.22,4.24-2.24.48.44.78,1.06.78,1.74Z" fill="#0a0001" stroke-width="0"/><path d="M35.99,16.13c-2.83.29-6.06.49-8.69,1.54-1.02.45-1.88.99-2.65,1.6-.03.03-.07.05-.1.08.4,1.71.54,3.21.12,5.04-1.21,4.61-4.75,8.4-2.73,13.29,4.02-1.67,8.22.82,7.41,5.21-.51,2.4-2.02,4.9-2.93,7.11-.71,1.06-1.04,2.34-1.35,3.49-.06.32-.11.62-.15.92-.49,3.65.6,5.81,3.69,8.21,3.23,2.4,3.74,1.35,7.37.77h0V16.13h0Z" fill="#ffdc3f" stroke-width="0"/><path d="M47.3,24.42c-.42-1.83-.28-3.34.12-5.06-.03-.03-.07-.06-.1-.09-.76-.62-1.63-1.16-2.65-1.6-2.63-1.06-5.86-1.26-8.69-1.54v47.26c3.64.58,4.14,1.63,7.37-.77,3.08-2.4,4.18-4.55,3.69-8.2-.04-.3-.09-.6-.15-.92-.3-1.15-.64-2.43-1.35-3.48-.91-2.21-2.42-4.71-2.93-7.11-.81-4.4,3.41-6.9,7.44-5.2,2.01-4.89-1.54-8.68-2.75-13.28Z" fill="#e6c73c" stroke-width="0"/><path d="M42.01,52.54c-.3-3.07-2.5-5.47-3.61-8.26-.5-1.34,0-5.66-2.41-5.57v19.6c1.41.54,2.69-.6,4.07-.76.31-.03.97-.16,1.24.07,0,0,0,0,0,0,.85-.86.9-3.95.71-5.07Z" fill="#ffdc3f" stroke-width="0"/><path d="M35.98,38.71c-2.43-.1-1.92,4.23-2.42,5.57-1.11,2.79-3.31,5.19-3.61,8.26-.2,1.13-.14,4.21.71,5.07,0,0,0,0,0,0,.27-.24.94-.1,1.24-.07,1.38.16,2.66,1.3,4.08.76,0,0,0,0,.01,0v-19.6s0,0-.01,0Z" fill="#e6c73c" stroke-width="0"/><path d="M35.98,58.3c-1.41.54-2.7-.6-4.08-.76-.31-.03-.97-.16-1.24.07,0,0-.01.01-.02.02-.02.05-.02.13.01.23.04.12.16.26.29.38.1.1.21.19.29.26.88.77,1.82,1.47,2.73,2.18.12.1.26.21.41.33.57.46,1.26,1.06,1.62,1.56,0,0,0,0,0-.01v-4.26s0,0-.01,0Z" fill="#1b1214" stroke-width="0"/><path d="M41.32,57.63s-.01-.01-.02-.02c-.27-.24-.94-.1-1.24-.07-1.38.16-2.66,1.3-4.07.76v4.26c.36-.5,1.04-1.09,1.61-1.55.15-.12.28-.23.41-.33.91-.7,1.85-1.41,2.73-2.18.08-.07.18-.16.29-.26.13-.12.25-.26.29-.38.03-.11.03-.18.01-.23Z" fill="#0a0001" stroke-width="0"/><path d="M40.9,58.15c-.27-.16-.67,0-.94.1-.74.29-1.31.8-1.79,1.41-.2.25-.6.99-.58,1.35.15-.12.28-.23.41-.33.91-.7,1.85-1.41,2.73-2.18.08-.07.18-.16.29-.26-.02-.02-.04-.05-.12-.09Z" fill="#a6892b" stroke-width="0"/><path d="M33.79,59.66c-.47-.61-1.04-1.12-1.79-1.41-.27-.1-.67-.26-.94-.1-.08.04-.1.07-.12.09.1.1.21.19.29.26.88.77,1.82,1.47,2.73,2.18.12.1.26.21.41.33.02-.36-.38-1.1-.58-1.35Z" fill="#b69533" stroke-width="0"/><g opacity=".8"><path d="M33.4,35.23c.33-.12.46-.24.83.01.69.46.18.79-.15,1.24-.35.48-.6,1.04-.8,1.59-.39,1.11-.58,2.28-.63,3.45-.02.16-.01.53-.01.79-.16-.48-.35-.94-.45-1.44-.09-.46-.09-.88-.14-1.34-.1-.99-.11-1.9.13-2.88.09-.37.13-.87.42-1.16.25-.25.49-.17.79-.27Z" fill="#1b1214" stroke-width="0"/></g><g opacity=".8"><path d="M34.52,20.28l.07.31c.08,1.21-.15,1.88-1.03,2.79-1.19-1.36-1.51-3.25-2.71-4.62,1.75-.83,3.5.83,3.66,1.51Z" fill="#1b1214" stroke-width="0"/></g><g opacity=".8"><path d="M30.26,27.32c-.1-.2-.31-.2-.52-.39-.52-.59-.21-1.28-.1-1.96.1-.59.83-1.47,1.55-1.47.31,0,1.03.39,1.03.79,0,0,.19.52.21,1.37,0,.49-.1.98-.21,1.47-.1.29-.21.59-.41.88-.1.29-.41.29-.72.29-.41.1-.41-.2-.62-.49,0-.2-.1-.39-.21-.49Z" fill="#1b1214" stroke-width="0"/></g><g opacity=".8"><path d="M53.66,40.76c-.04-.08-.12-.08-.21-.16-.21-.24-.08-.51-.04-.79.04-.24.33-.59.62-.59.12,0,.41.16.41.32,0,0,.08.21.08.55,0,.2-.04.39-.08.59-.04.12-.08.24-.17.35-.04.12-.17.12-.29.12-.17.04-.17-.08-.25-.2,0-.08-.04-.16-.08-.2Z" fill="#000" stroke-width="0"/></g><g opacity=".8"><path d="M29.15,21.27c.13.37.19,1.29-.39,1.48-.19.06-.32-.18-.45-.31-.19-.18-.39-.49-.58-.74-.13-.25-.45-.37-.65-.55-.26-.18-.45-.37-.65-.61-.13-.18-.39-.49-.39-.74s.13-.49.39-.55c.19-.12.52-.06.78-.06.19,0,.52.12.71.18.26.12.45.31.71.55.11.11.23.31.38.48,0,.03,0,.05,0,.07.06.25.06.49.13.8Z" fill="#1b1214" stroke-width="0"/></g><g opacity=".8"><path d="M27.98,26.83c.07.48.29.96,0,1.44-.14.27-.29.41-.58.41s-.43.14-.72,0c-.58-.27-1.01-.75-1.08-1.3-.07-.62.14-1.16.29-1.71.07-.21.14-.48.29-.68.07-.13.14-.26.27-.33.09.04.1.21.16.33.07.14.29.27.43.41.22.14.43.34.58.55.22.27.29.55.36.89Z" fill="#1b1214" stroke-width="0"/></g><g opacity=".8"><path d="M25.49,33.21c.06-.11.17-.22.29-.39.12-.17.17-.33.35-.44.12-.17.23-.28.35-.44.12-.11.17-.22.29-.33.12-.11.23-.17.41-.28.12-.11.23-.22.41-.33.35-.17.76-.28,1.11-.39.52-.11.59.27.59.27.02.04.05.08.05.12,0,.11,0,.22.06.33.17.39.47.72.76,1.05.12.11.17.22.29.39.06.11.17.22.23.39.18.22.23.61,0,.83-.23.11-.52,0-.76-.11-.17-.06-.29-.11-.47-.17-.12,0-.17,0-.23-.06-.12,0-.17-.06-.23-.11-.29-.06-.52,0-.76.06-.35.06-.64.11-.87.33-.47.33-1.22.28-1.69-.06-.23-.17-.35-.39-.17-.66Z" fill="#1b1214" stroke-width="0"/></g><g opacity=".8"><path d="M32.84,30.23c.08-.26.24-.57.25-.85,0-.28-.07-.52,0-.78.04-.13.06-.2.17-.31.16-.03.42-.17.56-.13.07.02.13.09.17.19,0,0,.17.43.06.8.17.19.38.24.46.48.15.25.08.73.07,1.01-.04.13-.08.26-.1.33-.06.2-.05.41-.02.56,0,.28.1.67.02.93-.08.26-.36.47-.68.53-.33.12-.61.05-.99-.19-.26-.14-.49-.63-.57-.86-.06-.3-.03-.65.03-.84.04-.13.17-.31.21-.44.11-.11.29-.21.34-.4Z" fill="#1b1214" stroke-width="0"/></g><g opacity=".8"><path d="M38.55,35.23c-.33-.12-.46-.24-.83.01-.69.46-.18.79.15,1.24.35.48.6,1.04.8,1.59.39,1.11.58,2.28.63,3.45.02.16.01.53.01.79.16-.48.35-.94.45-1.44.09-.46.09-.88.14-1.34.1-.99.12-1.9-.13-2.88-.09-.37-.13-.87-.42-1.16-.25-.25-.49-.17-.79-.27Z" fill="#000" stroke-width="0"/></g><g opacity=".8"><path d="M37.44,20.28l-.07.31c-.08,1.21.15,1.88,1.03,2.79,1.19-1.36,1.51-3.25,2.71-4.62-1.75-.83-3.5.83-3.66,1.51Z" fill="#000" stroke-width="0"/></g><g opacity=".8"><path d="M41.7,27.32c.1-.2.31-.2.52-.39.52-.59.21-1.28.1-1.96-.1-.59-.83-1.47-1.55-1.47-.31,0-1.03.39-1.03.79,0,0-.19.52-.21,1.37,0,.49.1.98.21,1.47.1.29.21.59.41.88.1.29.41.29.72.29.41.1.41-.2.62-.49,0-.2.1-.39.21-.49Z" fill="#000" stroke-width="0"/></g><g opacity=".8"><path d="M42.8,21.27c-.13.37-.19,1.29.39,1.48.19.06.32-.18.45-.31.19-.18.39-.49.58-.74.13-.25.45-.37.65-.55.26-.18.45-.37.65-.61.13-.18.39-.49.39-.74s-.13-.49-.39-.55c-.19-.12-.52-.06-.78-.06-.19,0-.52.12-.71.18-.26.12-.45.31-.71.55-.11.11-.23.31-.38.48,0,.03,0,.05,0,.07-.06.25-.06.49-.13.8Z" fill="#000" stroke-width="0"/></g><g opacity=".8"><path d="M43.98,26.83c-.07.48-.29.96,0,1.44.14.27.29.41.58.41s.43.14.72,0c.58-.27,1.01-.75,1.08-1.3.07-.62-.14-1.16-.29-1.71-.07-.21-.14-.48-.29-.68-.07-.13-.14-.26-.27-.33-.09.04-.1.21-.16.33-.07.14-.29.27-.43.41-.22.14-.43.34-.58.55-.22.27-.29.55-.36.89Z" fill="#000" stroke-width="0"/></g><g opacity=".8"><path d="M46.46,33.21c-.06-.11-.17-.22-.29-.39-.12-.17-.17-.33-.35-.44-.12-.17-.23-.28-.35-.44-.12-.11-.17-.22-.29-.33-.12-.11-.23-.17-.41-.28-.12-.11-.23-.22-.41-.33-.35-.17-.76-.28-1.11-.39-.52-.11-.59.27-.59.27-.02.04-.05.08-.05.12,0,.11,0,.22-.06.33-.17.39-.47.72-.76,1.05-.12.11-.17.22-.29.39-.06.11-.17.22-.23.39-.17.22-.23.61,0,.83.23.11.52,0,.76-.11.17-.06.29-.11.47-.17.12,0,.17,0,.23-.06.12,0,.17-.06.23-.11.29-.06.52,0,.76.06.35.06.64.11.87.33.47.33,1.22.28,1.69-.06.23-.17.35-.39.17-.66Z" fill="#000" stroke-width="0"/></g><g opacity=".8"><path d="M39.11,30.23c-.08-.26-.24-.57-.25-.85,0-.28.07-.52,0-.78-.04-.13-.06-.2-.17-.31-.16-.03-.42-.17-.56-.13-.07.02-.13.09-.17.19,0,0-.17.43-.06.8-.17.19-.38.24-.46.48-.15.25-.08.73-.07,1.01.04.13.08.26.1.33.06.2.05.41.02.56,0,.28-.1.67-.02.93.08.26.36.47.68.53.34.12.61.05.99-.19.26-.14.49-.63.57-.86.06-.3.03-.65-.03-.84-.04-.13-.17-.31-.21-.44-.11-.11-.29-.21-.34-.4Z" fill="#000" stroke-width="0"/></g><path d="M45.33,44.04s-.03-.46.99-.43c1.03.03.02,0,.02,0,0,0,.58,0,.7-.07.11-.06,0,0,.02,0s.31-.06.38.45c.07.51-.08,1.77-.38,1.94,0,0-.22.09-.43,0,0,0-.54-.46-.86-.57,0,0-.49.02-.58-.33,0,0-.17-.42.13-.98Z" fill="#000" opacity=".8" stroke-width="0"/><path d="M47.71,47.5s-.79,1.07.49,2.51c0,0,.54-.21.57-.4,0,0,.58-.96-.65-1.68,0,0-.38-.24-.41-.43Z" fill="#000" opacity=".8" stroke-width="0"/><path d="M52.98,35.18s-1.02,1.06-.42,1.49c0,0,.24.2.56.08,0,0,1.17-.81.44-1.1,0,0-.36-.17-.58-.47Z" fill="#000" opacity=".8" stroke-width="0"/><path d="M51.01,37.22s-.94,1.27.58,2.97c0,0,.64-.25.68-.47,0,0,.69-1.14-.77-1.99,0,0-.44-.28-.48-.51Z" fill="#000" opacity=".8" stroke-width="0"/><path d="M49.95,44.97s-.37.61.37.96c0,0,1.17.4,1.25-.3,0,0,.14-.59-.6-.91,0,0-.73.53-1.02.25Z" fill="#000" opacity=".8" stroke-width="0"/><path d="M52.48,41.9s-.61.42-.06,1.15c0,0,.31.53,1.45.49,0,0,.4-.11-.22-.59,0,0-.41-.32-.51-.57,0,0-.07-.26-.66-.49Z" fill="#000" opacity=".8" stroke-width="0"/><path d="M51.49,30.34s-.86.9-.35,1.26c0,0,.2.17.47.07,0,0,.99-.68.37-.93,0,0-.3-.14-.49-.4Z" fill="#000" opacity=".8" stroke-width="0"/><path d="M49.91,41.22s-.86.9-.35,1.26c0,0,.2.17.47.07,0,0,.99-.68.37-.93,0,0-.3-.14-.49-.4Z" fill="#000" opacity=".8" stroke-width="0"/><path d="M52.04,33.06s.65,1.15,2.58.72c0,0,.05-.55-.12-.67,0,0-.64-.93-1.87-.2,0,0-.39.21-.59.15Z" fill="#000" opacity=".8" stroke-width="0"/><path d="M49.47,27.36s-.31.51.31.82c0,0,.99.34,1.06-.26,0,0,.12-.5-.51-.77,0,0-.62.45-.87.21Z" fill="#000" opacity=".8" stroke-width="0"/><path d="M47.67,21.43s-.51.35-.05.98c0,0,.26.45,1.22.42,0,0,.34-.1-.19-.5,0,0-.35-.27-.43-.48,0,0-.06-.22-.56-.42Z" fill="#000" opacity=".8" stroke-width="0"/><path d="M50.04,25.21s1.06-.9-.53-.46c0,0-.98.56-.41.8,0,0,.37.17.7,0,0,0-.04-.22.25-.34Z" fill="#000" opacity=".8" stroke-width="0"/><path d="M52.34,27.87s-1.06.51-.4,1.01c0,0,.61.27.72-.43,0,0,0-.5-.1-.72,0,0-.1-.06-.22.14Z" fill="#000" opacity=".8" stroke-width="0"/><g opacity=".8"><path d="M18.11,40.76c.04-.08.12-.08.21-.16.21-.24.08-.51.04-.79-.04-.24-.33-.59-.62-.59-.12,0-.41.16-.41.32,0,0-.08.21-.08.55,0,.2.04.39.08.59.04.12.08.24.17.35.04.12.17.12.29.12.17.04.17-.08.25-.2,0-.08.04-.16.08-.2Z" fill="#1b1214" stroke-width="0"/></g><path d="M26.44,44.04s.03-.46-.99-.43c-1.03.03-.02,0-.02,0,0,0-.58,0-.7-.07-.11-.06,0,0-.02,0s-.31-.06-.38.45c-.07.51.08,1.77.38,1.94,0,0,.22.09.43,0,0,0,.54-.46.86-.57,0,0,.49.02.58-.33,0,0,.17-.42-.13-.98Z" fill="#1b1214" opacity=".8" stroke-width="0"/><path d="M24.06,47.5s.79,1.07-.49,2.51c0,0-.54-.21-.57-.4,0,0-.58-.96.65-1.68,0,0,.38-.24.41-.43Z" fill="#1b1214" opacity=".8" stroke-width="0"/><path d="M18.79,35.18s1.02,1.06.42,1.49c0,0-.24.2-.56.08,0,0-1.17-.81-.44-1.1,0,0,.36-.17.58-.47Z" fill="#1b1214" opacity=".8" stroke-width="0"/><path d="M20.76,37.22s.94,1.27-.58,2.97c0,0-.64-.25-.68-.47,0,0-.69-1.14.77-1.99,0,0,.44-.28.48-.51Z" fill="#1b1214" opacity=".8" stroke-width="0"/><path d="M21.82,44.97s.37.61-.37.96c0,0-1.17.4-1.25-.3,0,0-.14-.59.6-.91,0,0,.73.53,1.02.25Z" fill="#1b1214" opacity=".8" stroke-width="0"/><path d="M19.29,41.9s.61.42.06,1.15c0,0-.31.53-1.45.49,0,0-.4-.11.22-.59,0,0,.41-.32.51-.57,0,0,.07-.26.66-.49Z" fill="#1b1214" opacity=".8" stroke-width="0"/><path d="M20.27,30.34s.86.9.35,1.26c0,0-.2.17-.47.07,0,0-.99-.68-.37-.93,0,0,.3-.14.49-.4Z" fill="#1b1214" opacity=".8" stroke-width="0"/><path d="M21.87,41.22s.86.9.35,1.26c0,0-.2.17-.47.07,0,0-.99-.68-.37-.93,0,0,.3-.14.49-.4Z" fill="#1b1214" opacity=".8" stroke-width="0"/><path d="M19.73,33.06s-.65,1.15-2.58.72c0,0-.05-.55.12-.67,0,0,.64-.93,1.87-.2,0,0,.39.21.59.15Z" fill="#1b1214" opacity=".8" stroke-width="0"/><path d="M22.3,27.36s.31.51-.31.82c0,0-.99.34-1.06-.26,0,0-.12-.5.51-.77,0,0,.62.45.87.21Z" fill="#1b1214" opacity=".8" stroke-width="0"/><path d="M24.1,21.43s.51.35.05.98c0,0-.26.45-1.22.42,0,0-.34-.1.19-.5,0,0,.35-.27.43-.48,0,0,.06-.22.56-.42Z" fill="#1b1214" opacity=".8" stroke-width="0"/><path d="M21.73,25.21s-1.06-.9.53-.46c0,0,.98.56.41.8,0,0-.37.17-.7,0,0,0,.04-.22-.25-.34Z" fill="#1b1214" opacity=".8" stroke-width="0"/><path d="M19.43,27.87s1.06.51.4,1.01c0,0-.61.27-.72-.43,0,0,0-.5.1-.72,0,0,.1-.06.22.14Z" fill="#1b1214" opacity=".8" stroke-width="0"/></svg>