<?xml version="1.0" encoding="UTF-8"?><svg id="a" xmlns="http://www.w3.org/2000/svg" width="73" height="73" viewBox="0 0 73 73"><path d="M72.44,36.5c0,19.85-16.09,35.94-35.94,35.94S.56,56.35.56,36.5,16.65.56,36.5.56s35.94,16.09,35.94,35.94Z" fill="#b180ff" stroke-width="0"/><path d="M39.27,20.31c1.38-.79,3.03-2.44,3.68-3.69.01-.03.03-.06.04-.09,0,0,0,0,0,0h0c.67-1.04,5.23-.82,6.37-.65,3.49.6,6.61,1.98,10.08,3.83,2.48,1.32,4.7,3.02,7.19,4.17,2.42,8.93-6.85,14.51-13.5,17.53-2.26.97-5.69,1.87-7.03,3.97-.09-.83-.23-1.6-.46-2.27l-.23-.67-.66.27c-.19.08-.38.17-.57.29l-.49-.74-.49-19.4c-1.53-.41-3.14-1.06-3.92-2.54Z" fill="#393432" stroke-width="0"/><path d="M33.8,20.31c-1.38-.79-3.03-2.44-3.68-3.69-.01-.03-.03-.06-.04-.09,0,0,0,0,0,0h0c-.67-1.04-5.23-.82-6.37-.65-3.49.6-6.61,1.98-10.08,3.83-2.48,1.32-4.7,3.02-7.19,4.17-2.42,8.93,6.85,14.51,13.5,17.53,2.26.97,5.69,1.87,7.03,3.97.09-.83.23-1.6.46-2.27l.23-.67.66.27c.19.08.38.17.57.29l.49-.74.49-19.4c1.53-.41,3.14-1.06,3.92-2.54Z" fill="#393432" stroke-width="0"/><path d="M46.78,55.53c-1.6-3.07-.65-8.63-1.69-11.65-.72.3-1.56.96-2.08,1.58,1.31,2.89-.4,9.76,3.77,10.07Z" fill="#e6e7e8" stroke-width="0"/><path d="M26.29,55.53c1.6-3.07.65-8.63,1.69-11.65.72.29,1.56.96,2.08,1.58-1.31,2.89.4,9.76-3.77,10.07Z" fill="#fff" stroke-width="0"/><path d="M46.59,28.32c0-4.33-4.43-8.26-8.77-8.57h-1.29v12.85l7.31,5.58,1.03-.59c-1.11-3.33,1.81-5.95,1.71-9.27Z" fill="#5a514f" stroke-width="0"/><path d="M44.39,26.49c-3.74,3.27-1.28,6.28.19,9.96l1.66-3.96.08-2.35c.51-.45-.98-2.78-1.94-3.64Z" fill="#453e3c" stroke-width="0"/><path d="M26.48,28.32c0-4.33,4.43-8.26,8.77-8.56h1.29v12.85l-7.31,5.58-1.03-.59c1.11-3.33-1.81-5.94-1.71-9.27Z" fill="#695f5c" stroke-width="0"/><path d="M28.68,26.49c3.74,3.27,1.28,6.28-.19,9.96l-1.66-3.96-.08-2.35c-.51-.45.98-2.78,1.94-3.64Z" fill="#504846" stroke-width="0"/><path d="M28.49,28.59s1.54,1.12.8,3.07c0,0-.66-.35-1.17-.95,0,0,.09-1.4.37-2.12Z" fill="#fff" stroke-width="0"/><path d="M44.59,28.59s-1.54,1.12-.8,3.07c0,0,.66-.35,1.17-.95,0,0-.09-1.4-.37-2.12Z" fill="#e7e8e9" stroke-width="0"/><path d="M27.39,42.93c3.87.58,4.39,4.51,5.63,7.53h0s1.9,6.63,1.17,10.26h2.34v-28.37c-5.54.2-8.54,5.64-9.15,10.58Z" fill="#5a514f" stroke-width="0"/><path d="M45.68,42.93c-.61-4.94-3.6-10.38-9.15-10.58v28.37h2.34c-.73-3.63,1.17-10.26,1.17-10.26h0c1.25-3.02,1.76-6.95,5.63-7.53Z" fill="#695f5c" stroke-width="0"/><rect x="33.69" y="59.83" width="5.69" height="3.57" rx=".89" ry=".89" fill="#393432" stroke-width="0"/><path d="M36.18,61.61c0,.49-.4.88-.88.88s-.88-.4-.88-.88.4-.88.88-.88.88.4.88.88Z" fill="#171210" stroke-width="0"/><path d="M38.63,61.61c0,.49-.4.88-.88.88s-.88-.4-.88-.88.4-.88.88-.88.88.4.88.88Z" fill="#171210" stroke-width="0"/><text transform="translate(30.65 11.44)" fill="#000" font-family="Verdana, Verdana" font-size="10"><tspan x="0" y="0">P2</tspan></text></svg>