<?xml version="1.0" encoding="UTF-8"?><svg id="a" xmlns="http://www.w3.org/2000/svg" width="73" height="73" viewBox="0 0 73 73"><path d="M72.44,36.5c0,19.85-16.09,35.94-35.94,35.94S.56,56.35.56,36.5,16.65.56,36.5.56s35.94,16.09,35.94,35.94Z" fill="#b180ff" stroke-width="0"/><text transform="translate(30.65 11.44)" fill="#000" font-family="Verdana, Verdana" font-size="10"><tspan x="0" y="0">P2</tspan></text><path d="M29.38,20.21c-9.61,4.8-14.43,13.13-15.37,23.43.96.8,1.96,1.65,2.83,2.35-1.4,5.87.79,13.76,4.47,18.58,2.28-.79,5.97-2.24,8.33-3.11h6.54V18.84c-3.32.03-6.81,1.37-6.81,1.37Z" fill="#dcceab" stroke-width="0"/><path d="M58.36,43.64c-.94-10.29-5.76-18.62-15.37-23.43,0,0-3.49-1.34-6.81-1.37v42.61h6.54c2.37.88,6.06,2.33,8.33,3.11,3.68-4.82,5.87-12.71,4.47-18.58.86-.71,1.87-1.55,2.83-2.35Z" fill="#c9b997" stroke-width="0"/><polygon points="36.18 18.84 36.18 18.85 36.19 18.84 36.18 18.84" fill="none" stroke-width="0"/><polygon points="36.2 18.84 36.18 18.84 36.19 18.84 36.2 18.84" fill="#f59412" stroke-width="0"/><path d="M52.55,31.96c-.44-1.75-1.93-2.72-3.33-3.77-1.67-1.23-2.28-2.54-3.42-4.21-1.82-2.77-6.38-4.59-9.62-5.14,0,0,0,0,0,0v33.7l7.54,2.49c2.05.61,3.8-.81,3.8-.81,5.99-4.8,6.97-14.56,5.04-22.27Z" fill="#d3811a" stroke-width="0"/><path d="M26.57,23.98c-1.14,1.67-1.75,2.98-3.42,4.21-1.4,1.05-2.89,2.02-3.33,3.77-1.93,7.71-.96,17.48,5.04,22.27,0,0,1.75,1.42,3.8.81l7.5-2.5h.02s0-33.7,0-33.7c-3.24.55-7.79,2.36-9.61,5.14Z" fill="#f59412" stroke-width="0"/><path d="M29.96,39.97c-1.05,1.49-.08.18-1.22,1.58-1.58,1.83-3.46,3.04-4.68,4.67-3.16,4.09-.23,10.34,5.02,10.28,1.64,0,3.33-.7,4.62-1.69.47-.41,2.02-1.62,2.48-1.32v-26.76c-5.61.7-3.42,9.39-6.22,13.24Z" fill="#d16a01" stroke-width="0"/><path d="M48.34,46.21c-1.23-1.64-3.11-2.84-4.68-4.67-1.14-1.4-.17-.09-1.22-1.58-2.8-3.86-.64-12.53-6.25-13.23v26.76c.47-.29,2.04.91,2.51,1.31,1.29.99,2.98,1.69,4.62,1.69,5.26.06,8.18-6.19,5.02-10.28Z" fill="#c06323" stroke-width="0"/><path d="M42.57,36.48c.15,0,.15-.23,0-.23s-.15.23,0,.23h0Z" fill="#fff" stroke-width="0"/><path d="M47.21,33.72c.15,0,.15-.23,0-.23s-.15.23,0,.23h0Z" fill="#fff" stroke-width="0"/><path d="M36.3,21.31s.02-.03,0-.03-.02.03,0,.03h0Z" fill="#fff" stroke-width="0"/><path d="M52.51,31.8c3.7-1.61,2.93-4.82,4.19-7.75.78-1.7,1.85-2.36,1.46-4.44-.19-1.32-1.26-2.36-1.65-3.68h0c-.29,0-.58-.19-.88-.19,1.07-5.48-10,6.25-11.12,6.78,0,0,1.29,1.11,2.26,2.93,0,0,1.44,2.24,2.69,2.92,0,0,2.65,1.67,3.05,3.43" fill="#c06323" stroke-width="0"/><path d="M55.67,19.45c-.18-.61-.7-1.23-1.14-1.67-2.63,1.31-4.38,3.86-6.66,5.61,1.49,2.45,4.91,1.93,5.96,4.38.96-1.93,2.19-6.05,1.84-8.33Z" fill="#c9b997" stroke-width="0"/><path d="M28.67,58.14c.58.7.64,2.51.99,3.33.35.93,1.05,1.69,1.99,2.1,1.34.58,3.07.53,4.53.82v-8.12c-2.69-1.11-4.83,2.98-7.51,1.87Z" fill="#f59412" stroke-width="0"/><path d="M36.18,56.27v8.12c1.46-.29,3.21-.24,4.56-.83.93-.41,1.64-1.17,1.99-2.1.35-.82.41-2.63.99-3.33-2.69,1.11-4.85-2.97-7.54-1.86Z" fill="#d3811a" stroke-width="0"/><path d="M36.18,45.15c-1.52-.53-3.37-.33-4.77.37-.41,1.87,1.46,2.4,2.51,3.51.76.82.97,1.87,2.26,1.99v-5.86h0Z" fill="#5c2a00" stroke-width="0"/><path d="M40.9,45.5c-1.41-.69-3.2-.88-4.72-.35v5.86h0c1.28-.12,1.47-1.17,2.23-1.99,1.05-1.12,2.91-1.65,2.5-3.52Z" fill="#4e2404" stroke-width="0"/><path d="M25.42,31.65c.8-3.53,2.76-2.04,3.51.58-.89-1.04-2.47-1.03-3.51-.58" fill="#211d1c" stroke-width="0"/><path d="M19.88,31.79c-3.7-1.61-2.93-4.82-4.2-7.75-.78-1.7-1.85-2.36-1.46-4.44.19-1.32,1.26-2.36,1.65-3.68h0c.29,0,.58-.19.88-.19-1.07-5.48,10,6.25,11.12,6.78,0,0-1.29,1.11-2.26,2.93,0,0-1.44,2.24-2.69,2.92,0,0-2.65,1.67-3.04,3.43" fill="#d16a01" stroke-width="0"/><path d="M16.72,19.44c.18-.61.7-1.23,1.14-1.67,2.63,1.31,4.38,3.86,6.66,5.61-1.49,2.45-4.91,1.93-5.96,4.38-.96-1.93-2.19-6.05-1.84-8.33Z" fill="#dcceab" stroke-width="0"/><path d="M46.97,31.66c-.8-3.53-2.76-2.04-3.51.58.89-1.04,2.47-1.03,3.51-.58" fill="#0f0705" stroke-width="0"/><path d="M26.39,41.56c-3.88-.97-3.9-4.11-3.48-5.91-2.72,2.94-.55,6.85,3.48,5.91" fill="#211d1c" stroke-width="0"/><path d="M42.86,39.35s-1.72-2.62-.52-5.05c0,0,1.14-2.31,3.81-1.75,0,0,.92.14,2.88,1.37,0,0-1.12.14-1.76-.04,0,0-.54,3.18-4.08,2.79,0,0-.9,1-.34,2.68Z" fill="#0f0705" stroke-width="0"/><path d="M29.52,39.35s1.72-2.62.52-5.05c0,0-1.14-2.31-3.81-1.75,0,0-.92.14-2.88,1.37,0,0,1.12.14,1.76-.04,0,0,.54,3.18,4.08,2.79,0,0,.9,1,.34,2.68Z" fill="#211d1c" stroke-width="0"/><path d="M25.39,46.8s0,.06,0,.17c0,.05,0,.12,0,.2,0,.08,0,.17.01.26.01.2.04.43.09.68.05.25.13.5.26.72.12.22.28.4.46.55.18.15.39.26.61.34.22.08.45.15.69.19.24.05.48.08.72.1.24.03.49.04.73.06.24.01.48.03.71.04.46.03.9.06,1.28.11.19.03.36.06.52.09.16.03.29.07.4.11.11.03.2.07.26.1.06.03.09.04.09.04,0,0-.12.03-.33.09-.21.06-.51.15-.87.24-.36.09-.79.19-1.25.24-.23.03-.47.05-.72.06-.25,0-.5,0-.76-.03-.26-.03-.51-.07-.77-.15-.26-.07-.51-.18-.76-.32-.25-.14-.49-.33-.72-.58-.22-.25-.42-.57-.56-.93-.14-.36-.2-.74-.22-1.05-.02-.31,0-.56.02-.76,0-.05.01-.1.02-.14,0-.04.01-.08.02-.12.01-.07.02-.13.03-.18.02-.1.03-.15.03-.15Z" fill="#211d1c" stroke-width="0"/><path d="M33.06,52.86s-.03,0-.1.02c-.06,0-.16.03-.27.05-.11.02-.25.07-.41.11-.16.05-.33.11-.52.18-.19.07-.4.15-.61.25-.22.09-.45.18-.69.28-.24.1-.49.19-.75.27-.26.08-.53.15-.8.2-.27.04-.55.07-.83.06-.28-.01-.56-.07-.84-.16-.27-.1-.54-.24-.78-.43-.06-.04-.12-.1-.18-.15-.06-.05-.11-.09-.17-.15-.11-.12-.21-.22-.3-.34-.05-.06-.09-.12-.14-.17-.04-.06-.08-.12-.12-.18-.08-.12-.15-.23-.22-.35-.06-.12-.13-.22-.18-.33-.05-.11-.09-.2-.14-.29-.04-.09-.07-.17-.1-.24-.03-.07-.05-.13-.07-.18-.04-.1-.06-.15-.06-.15,0,0,.03.04.08.12.05.08.13.19.23.33.1.13.22.3.37.46.04.04.07.09.11.13.04.04.08.08.12.12.04.04.08.09.13.13.04.04.09.08.13.12.18.16.39.3.6.41.22.11.45.19.69.24.24.05.49.06.74.06.25,0,.51-.04.77-.08.26-.04.52-.1.77-.16.26-.06.51-.12.76-.18.49-.11.97-.19,1.38-.21.1,0,.2,0,.3,0,.1,0,.19.01.27.02.17.02.32.05.44.09.12.03.22.07.28.1.06.03.1.04.1.04Z" fill="#211d1c" stroke-width="0"/><path d="M35.38,23.77s-.03.02-.08.05c-.05.03-.12.07-.22.12-.19.1-.46.23-.79.35-.33.13-.71.26-1.12.4-.2.06-.41.13-.63.2-.11.03-.21.07-.32.1-.11.03-.21.07-.32.1-.21.07-.42.14-.63.22-.1.04-.21.07-.31.11-.1.04-.2.08-.3.12-.1.04-.19.09-.28.12-.09.04-.18.08-.27.12-.17.09-.34.16-.49.26-.08.04-.15.08-.22.12-.07.04-.13.09-.19.13-.12.08-.23.15-.31.22-.08.07-.15.12-.2.15-.05.03-.07.05-.07.05,0,0,.01-.03.04-.09.03-.06.07-.15.12-.26.03-.05.06-.12.1-.18.04-.06.08-.13.13-.2.05-.07.1-.15.15-.22.06-.07.12-.14.19-.22.13-.16.29-.3.46-.45.08-.08.18-.14.27-.21.09-.07.19-.14.29-.2.2-.12.41-.24.63-.34.22-.11.44-.18.67-.27.23-.07.45-.14.68-.19.23-.05.45-.09.66-.12.22-.03.42-.05.62-.07.2-.01.38-.02.56-.02.17,0,.33,0,.47,0,.14,0,.26.02.37.02.1,0,.18.02.24.02.06,0,.08.01.08.01Z" fill="#211d1c" stroke-width="0"/><path d="M26.39,34.46c0,.84.68,1.53,1.53,1.53s1.53-.68,1.53-1.53-.68-1.53-1.53-1.53-1.53.68-1.53,1.53Z" fill="#dcceab" stroke-width="0"/><path d="M31.75,22.55s.03-.07.09-.18c.03-.06.07-.12.13-.19.06-.08.12-.14.2-.22.08-.08.16-.14.26-.22.1-.06.2-.14.31-.19.22-.12.45-.21.69-.29.12-.03.24-.07.35-.1.12-.03.23-.05.34-.07.11-.02.22-.04.32-.05.1-.01.2-.03.29-.04.09,0,.17-.02.25-.03.08,0,.14-.01.2-.02.11,0,.18,0,.18,0,0,0-.04.06-.12.15-.04.05-.09.1-.16.16-.06.06-.13.12-.22.18-.04.03-.08.06-.13.09-.05.03-.09.06-.14.09-.1.06-.2.11-.31.16-.11.05-.22.1-.33.14-.11.04-.23.08-.34.12-.12.03-.23.07-.34.1-.06.02-.11.03-.17.04-.05.01-.11.03-.16.04-.11.03-.21.06-.31.08-.09.03-.19.05-.27.07-.08.03-.17.04-.23.07-.07.02-.13.04-.19.06-.11.04-.17.06-.17.06Z" fill="#211d1c" stroke-width="0"/><path d="M46,41.57c3.88-.96,3.9-4.11,3.48-5.91,2.72,2.94.55,6.85-3.48,5.91" fill="#0f0705" stroke-width="0"/><path d="M47,46.81s0,.06,0,.17c0,.05,0,.12,0,.2,0,.08,0,.17-.01.26-.01.2-.04.43-.09.68-.05.25-.13.5-.26.72-.12.22-.28.4-.46.55-.18.15-.39.26-.61.34-.22.08-.45.15-.69.19-.24.05-.48.08-.72.1-.24.03-.49.04-.73.06-.24.01-.48.03-.71.04-.46.03-.9.06-1.28.11-.19.03-.36.06-.52.09-.16.03-.29.07-.4.11-.11.03-.2.07-.26.1-.06.03-.09.04-.09.04,0,0,.12.03.33.09.21.06.51.15.87.24.36.09.79.19,1.25.24.23.03.47.05.72.06.25,0,.5,0,.76-.03.26-.03.51-.07.77-.15.26-.07.51-.18.76-.32.25-.14.49-.33.72-.58.22-.25.42-.57.56-.93.14-.36.2-.74.22-1.05.02-.31,0-.56-.02-.76,0-.05-.01-.1-.02-.14,0-.04-.01-.08-.02-.12-.01-.07-.02-.13-.03-.18-.02-.1-.03-.15-.03-.15Z" fill="#0f0705" stroke-width="0"/><path d="M39.33,52.87s.03,0,.1.02c.06,0,.16.03.27.05.11.02.25.07.41.11.16.05.33.11.52.18.19.07.4.15.61.25.22.09.45.18.69.28.24.1.49.19.75.27.26.08.53.15.8.2.27.04.55.07.83.06.28-.01.56-.07.84-.16.27-.1.54-.24.78-.43.06-.04.12-.1.18-.15.06-.05.11-.09.17-.15.11-.12.21-.22.3-.34.05-.06.09-.12.14-.18.04-.06.08-.12.12-.18.08-.12.15-.23.22-.35.06-.12.13-.22.18-.33.05-.11.1-.2.14-.29.04-.09.07-.17.1-.24.03-.07.05-.13.07-.18.04-.1.06-.15.06-.15,0,0-.03.04-.08.12-.05.08-.13.19-.23.33-.1.13-.22.3-.37.46-.04.04-.07.09-.11.13-.04.04-.08.08-.12.12-.04.04-.08.09-.13.13-.04.04-.09.08-.13.12-.18.16-.39.3-.6.41-.22.11-.45.19-.69.24-.24.05-.49.06-.74.06-.25,0-.51-.04-.77-.08-.26-.04-.51-.1-.77-.16-.26-.06-.51-.12-.76-.18-.49-.11-.97-.19-1.38-.21-.1,0-.2,0-.3,0-.09,0-.19.01-.27.02-.17.02-.32.05-.44.09-.12.03-.22.07-.28.1-.06.03-.1.04-.1.04Z" fill="#0f0705" stroke-width="0"/><path d="M37.01,23.77s.03.02.08.05c.05.03.12.07.22.12.19.1.46.23.79.36.33.13.71.26,1.12.4.2.07.41.13.63.2.11.03.21.07.32.1.11.03.21.07.32.1.21.07.42.14.63.22.1.04.21.07.31.11.1.04.2.08.3.12.1.04.19.09.28.12.09.04.18.08.27.12.17.09.34.16.48.26.08.04.15.08.22.12.07.04.13.09.19.13.12.08.23.15.31.22.08.07.15.12.2.15.05.03.07.05.07.05,0,0-.01-.03-.04-.09-.03-.06-.06-.15-.12-.26-.03-.05-.06-.12-.1-.18-.04-.06-.08-.13-.13-.2-.05-.07-.1-.15-.15-.22-.06-.07-.12-.14-.19-.22-.13-.16-.29-.3-.46-.45-.08-.08-.18-.14-.27-.21-.09-.07-.19-.14-.29-.2-.2-.12-.41-.24-.63-.34-.22-.11-.44-.18-.67-.27-.23-.07-.45-.14-.68-.19-.23-.05-.45-.09-.66-.12-.22-.03-.42-.05-.62-.07-.2-.01-.38-.02-.56-.02-.17,0-.33,0-.47,0-.14,0-.26.02-.37.02-.1,0-.18.02-.24.02-.06,0-.08.01-.08.01Z" fill="#0f0705" stroke-width="0"/><path d="M46,34.47c0,.84-.68,1.53-1.53,1.53s-1.53-.68-1.53-1.53.68-1.53,1.53-1.53,1.53.68,1.53,1.53Z" fill="#c9b997" stroke-width="0"/><path d="M40.64,22.56s-.03-.07-.09-.18c-.03-.06-.07-.12-.13-.19-.06-.08-.12-.14-.2-.22-.08-.08-.16-.14-.26-.22-.1-.06-.2-.14-.31-.19-.22-.12-.45-.21-.69-.29-.12-.04-.24-.07-.35-.1-.12-.03-.23-.05-.34-.07-.11-.02-.22-.04-.32-.05-.1-.01-.2-.03-.29-.04-.09,0-.17-.02-.25-.03-.08,0-.14-.01-.2-.02-.11,0-.18,0-.18,0,0,0,.04.06.12.15.04.05.09.1.16.16.06.06.13.12.22.18.04.03.08.06.13.09.05.03.09.06.14.09.1.06.2.11.31.16.11.05.22.1.33.14.11.04.23.08.34.12.12.03.23.07.34.1.06.02.11.03.17.04.06.01.11.03.16.04.11.03.21.06.31.08.09.03.19.05.27.07.08.02.17.04.23.07.07.02.13.04.19.06.11.04.17.06.17.06Z" fill="#0f0705" stroke-width="0"/></svg>