<?xml version="1.0" encoding="UTF-8"?><svg id="a" xmlns="http://www.w3.org/2000/svg" width="73" height="73" viewBox="0 0 73 73"><path d="M72.44,36.5c0,19.85-16.09,35.94-35.94,35.94S.56,56.35.56,36.5,16.65.56,36.5.56s35.94,16.09,35.94,35.94Z" fill="#ff6994" stroke-width="0"/><text transform="translate(30.65 11.44)" fill="#000" font-family="Verdana, Verdana" font-size="10"><tspan x="0" y="0">P1</tspan></text><path d="M53.9,38.63l-7.56,1.38-9.68,5.54v21.13h0v3.29c.11.01.3.02.59.01.95-.09,2.83-.59,3.89-3.12h0s0,0,0,0h0c1.57-3.97,3.64-7.63,5.72-11.55,2.53-4.83,5.75-8.98,9.31-12.92l-2.28-3.76Z" fill="#b5ab95" stroke-width="0"/><path d="M19.46,38.63l7.56,1.38,9.68,5.54v21.13h0v3.29c-.11.01-.3.02-.59,0-.95-.09-2.83-.59-3.89-3.12h0s0,0,0,0h0c-1.57-3.97-3.64-7.63-5.72-11.55-2.53-4.83-5.75-8.98-9.31-12.92l2.28-3.77Z" fill="#c7bba3" stroke-width="0"/><path d="M36.57,59.94c-.95-.11-2.12.21-3.18.11.11.11.32.21.21.42,1.03.92,1.95.85,3.07,1.04v-1.57h-.11Z" fill="#454b53" stroke-width="0"/><path d="M39.96,60.04c-1.06.11-2.22-.21-3.18-.11h-.11v1.57c1.12-.19,2.04-.12,3.07-1.04-.11-.21.11-.32.21-.42Z" fill="#373d44" stroke-width="0"/><path d="M56.78,34.52l-1.12-1.54-4.28-19.03s-4.27,3.99-14.65,3.78c-.02,0-.03,0-.05,0v41.65s.05,0,.05,0c0,0,.39.04,1.1.07,0,0,2.86.54,4.54-1.61,0,0,1.52-1.52,1.24-5.72,0,0-.84-6.46,2.62-7.94l1.8-3.28s.82-.86,3.78.06c0,0,0,0,.01,0,.07,0,.46.08.87.51.76.57,1.65,1.63,1.07,3.26-.19.51-.5,1.1-1.05,1.71-2.51,2.83-7.54,10.85-12.02,21.33,0,0-.2.56-1.41,1.53,0,0,12.16-10.15,19.69-12.16,0,0,5.08-11.85-2.19-22.6Z" fill="#373d44" stroke-width="0"/><path d="M16.58,34.52l1.12-1.54,4.28-19.03s4.27,3.99,14.65,3.78c.02,0,.03,0,.05,0v41.65s-.05,0-.05,0c0,0-.39.04-1.1.07,0,0-2.86.54-4.54-1.62,0,0-1.51-1.52-1.24-5.72,0,0,.84-6.46-2.62-7.95l-1.8-3.28s-.82-.86-3.78.06c0,0,0,0-.01,0-.07,0-.46.08-.87.51-.76.57-1.65,1.63-1.07,3.26.18.51.5,1.1,1.05,1.71,2.51,2.83,7.54,10.85,12.02,21.33,0,0,.2.56,1.41,1.53,0,0-12.16-10.15-19.69-12.17,0,0-5.08-11.84,2.19-22.6Z" fill="#454b53" stroke-width="0"/><path d="M17.62,14.14c3.99-3.57,9.64,4.19,11.08,7.74.01.02.02.05.03.07-.01.02-.02.05-.03.07-1.14,2.48-3.68,4.35-6.1,6.17l-5.08,5.13c-1.06-2.01-.97-3.61-1.07-5.72-.11-2.97-1.17-11.33,1.17-13.45Z" fill="#c7bba3" stroke-width="0"/><path d="M19.06,14.7c3.75-1.87,6.42,3.88,7.5,7.28-1.23,4.25-7.27,6.07-8.83,10.22v-3.79c-.11-2.97-2.17-12.01,1.33-13.7Z" fill="#8b7a5d" stroke-width="0"/><path d="M55.79,33.32c1.06-2.01.97-3.61,1.07-5.72.11-2.97,1.17-11.33-1.16-13.45-3.99-3.57-9.64,4.19-11.08,7.74-.01.02-.02.05-.03.07.01.02.02.05.03.07,1.14,2.48,3.68,4.35,6.1,6.17l5.08,5.13Z" fill="#b5ab95" stroke-width="0"/><path d="M55.57,32.2v-3.79c.11-2.97,2.17-12.01-1.33-13.7-3.75-1.87-6.42,3.88-7.5,7.28,1.23,4.25,7.27,6.07,8.83,10.22Z" fill="#7e6f55" stroke-width="0"/><path d="M36.61,51.5c-2.06-.52-4.21.74-4.63,2.86l-.05.09c.21.38.28.8.42,1.2.8,2.03,2.14,2.66,4.1,2.4l.22.02v-6.59s-.04,0-.07.01Z" fill="#1c1b1b" stroke-width="0"/><path d="M41.16,54.38c-.41-2.07-2.47-3.32-4.48-2.89v6.59h.01c1.95.26,3.3-.38,4.1-2.4.14-.4.21-.82.42-1.2l-.05-.09Z" fill="#1c1b1b" stroke-width="0"/><path d="M35.61,54.85l-.14-.21c-.57-.07-1.18.11-1.55.54,0,.02.09.09.07.14-.71,2.33,3.63,1.46,1.62-.47Z" fill="#000" stroke-width="0"/><path d="M37.54,54.87l.14-.21c.57-.07,1.18.1,1.55.54,0,.02-.09.09-.07.14.71,2.33-3.63,1.46-1.62-.47Z" fill="#000" stroke-width="0"/><path d="M36.75,51.5c2.06-.52,4.21.74,4.63,2.86l.05.09c-.21.38-.28.8-.42,1.2-.8,2.03-2.14,2.66-4.1,2.4l-.22.02v-6.59s.05,0,.07.01Z" fill="#131313" stroke-width="0"/><path d="M37.75,54.85l.14-.21c.57-.07,1.18.11,1.55.54,0,.02-.09.09-.07.14.71,2.33-3.62,1.46-1.62-.47Z" fill="#000" stroke-width="0"/><path d="M31.23,40.66c1.06,5.08-4.77,4.13-7.52,5.4-.53-2.33.11-8.05,2.22-9.75,2.22-1.91,5.61-1.69,5.72,1.48,0,0-.07.58-.28,1.05l-.28.86.07.45.07.5Z" fill="#8b7756" stroke-width="0"/><path d="M26.09,37.68c2.68-1.84,6.36-.99,5.79,3.25h-.12c-.42-.87-1.44-.82-2.26-1.04-1.25-.28-1.46-.85-2.4-1.65-.24-.21-.47-.38-.73-.49l-.28-.07Z" fill="#030000" stroke-width="0"/><path d="M28.27,38.1c0,.78.63,1.41,1.41,1.41s1.41-.63,1.41-1.41-.63-1.41-1.41-1.41-1.41.63-1.41,1.41Z" fill="#8d642e" stroke-width="0"/><path d="M47.42,36.31c-2.22-1.91-5.61-1.69-5.72,1.48,0,0,.07.58.28,1.05l.28.86-.07.45-.07.5c-1.06,5.08,4.77,4.13,7.52,5.4.53-2.33-.11-8.05-2.22-9.75Z" fill="#7e6c4e" stroke-width="0"/><path d="M47.27,37.68c-2.68-1.84-6.36-.99-5.79,3.25h.12c.42-.87,1.44-.82,2.26-1.04,1.25-.28,1.46-.85,2.4-1.65.24-.21.47-.38.73-.49l.28-.07Z" fill="#000" stroke-width="0"/><circle cx="43.67" cy="38.1" r="1.41" fill="#8d642e" stroke-width="0"/><path d="M51.81,40.94s0,0,.01,0c0,0-.01,0-.01,0Z" fill="none" stroke-width="0"/><path d="M51.82,40.94s-.01,0-.01,0c0,0,.42.17.88.52-.41-.43-.8-.51-.87-.51Z" fill="#454b53" stroke-width="0"/></svg>