<?xml version="1.0" encoding="UTF-8"?><svg id="a" xmlns="http://www.w3.org/2000/svg" width="73" height="73" viewBox="0 0 73 73"><path d="M72.44,36.5c0,19.85-16.09,35.94-35.94,35.94S.56,56.35.56,36.5,16.65.56,36.5.56s35.94,16.09,35.94,35.94Z" fill="#b180ff" stroke-width="0"/><text transform="translate(30.65 11.44)" fill="#000" font-family="Verdana, Verdana" font-size="10"><tspan x="0" y="0">P2</tspan></text><path d="M36.18,16.34h0c-.76-.95-1.79-1.7-3.11-1.89.38.94.28,2.08.66,3.02-3.3-3.87-9.34-1.6-13.12-.47,2.08.85,3.96,1.89,5.57,3.4-3.78-1.32-9.34,2.17-12.36,4.25,5.38.09,2.64,13.21,2.26,16.23-1.42,10.85,1.51,19.63,10.48,26.42l.03-.15.03.15c.16-.16,4.24-3.15,5.53-4.12,1.78,2.06,4.04,4.93,4.04,4.93V16.34h0Z" fill="#fcb316" stroke-width="0"/><path d="M36.18,16.34h0c.76-.95,1.79-1.7,3.11-1.89-.38.94-.28,2.08-.66,3.02,3.3-3.87,9.34-1.6,13.12-.47-2.08.85-3.96,1.89-5.57,3.4,3.77-1.32,9.34,2.17,12.36,4.25-5.38.09-2.64,13.21-2.27,16.23,1.42,10.85-1.51,19.63-10.47,26.42l-.03-.15-.03.15c-.16-.16-4.24-3.15-5.53-4.12-1.78,2.06-4.04,4.93-4.04,4.93V16.34h0Z" fill="#d99c14" stroke-width="0"/><path d="M26.85,28.55c-.21,2.62-1.49,5.17-1.63,7.86-.28,4.96,1.63,7.01,4.67,10.4h6.29v-22.8c-2.42,2.07-6.21,3.92-9.33,4.54Z" fill="#f7941e" stroke-width="0"/><path d="M47.45,36.4c-.14-2.69-1.42-5.24-1.63-7.86-3.18-.64-7.08-2.55-9.48-4.67-.05.04-.1.09-.15.13v22.8h6.59c3.04-3.4,4.95-5.45,4.67-10.4Z" fill="#d6811b" stroke-width="0"/><path d="M34.18,39.57c-3.89,5.52-7.79,10.69-3.54,17.13,3.25-.46,3.81-.78,5.54-3.16v-15.37c-.95.11-2,1.41-2,1.41Z" fill="#d99c14" stroke-width="0"/><path d="M38.28,39.57s-1.09-1.34-2.05-1.41h0s-.03,0-.05,0v15.37s.03-.04.04-.06h0c1.77,2.45,2.31,2.77,5.59,3.23,4.25-6.44.35-11.61-3.54-17.13Z" fill="#fcb316" stroke-width="0"/><path d="M29.69,36.62c.06.83.61,1.35,1.12,1.54.76.28,1.7.2,2.4,1.27h0c-.45-1.52-.23-3.4-.96-3.84-.42-.26-1.94-.09-2.55,1.04Z" fill="#454b53" stroke-width="0"/><path d="M42.77,36.62c-.06.83-.94,1.02-1.45,1.2-.76.28-1.72.33-2.06,1.6h0c.45-1.52.23-3.4.96-3.84.42-.26,1.94-.09,2.55,1.04Z" fill="#373d44" stroke-width="0"/><path d="M36.09,48.67c.05,0,.05-.08,0-.08s-.05.08,0,.08h0Z" fill="#fff" stroke-width="0"/><path d="M32.76,47.93c.5,1.84,2.19,2.41,2.62,4.96.33.06.6-.03.8-.05v-4.03c-.57-.01-2.53-.26-3.42-.88Z" fill="#454b53" stroke-width="0"/><path d="M36.23,48.81s-.03,0-.05,0v4.03s.03,0,.04,0c.21,0,.5.12.85.05.42-2.55,2.12-3.12,2.62-4.96-.92.64-2.81.88-3.47.88Z" fill="#373d44" stroke-width="0"/><path d="M32.03,57.67s1.22,2.55,4.15,2.24v-4.58c-.31.24-2.12,1.65-4.15,2.34Z" fill="#373d44" stroke-width="0"/><path d="M36.23,55.3s-.02.01-.05.04v4.58s.03,0,.05,0c2.96.34,4.2-2.24,4.2-2.24-2.23-.75-4.2-2.37-4.2-2.37Z" fill="#5d5d5d" stroke-width="0"/></svg>