<?xml version="1.0" encoding="UTF-8"?><svg id="a" xmlns="http://www.w3.org/2000/svg" width="73" height="73" viewBox="0 0 73 73"><path d="M72.44,36.5c0,19.85-16.09,35.94-35.94,35.94S.56,56.35.56,36.5,16.65.56,36.5.56s35.94,16.09,35.94,35.94Z" fill="#b180ff" stroke-width="0"/><text transform="translate(30.65 11.44)" fill="#000" font-family="Verdana, Verdana" font-size="10"><tspan x="0" y="0">P2</tspan></text><path d="M28.28,31.54c-7.09-4.13-13.83-11.67-16.01-14.24-.41-.48-1.14-.48-1.56,0-1.88,2.18-6.04,8.18-2.23,15.27,4.81,8.93,14.08,6.61,14.08,6.61l5.71-7.64Z" fill="#dbadaa" stroke-width="0"/><path d="M26.4,34.05l1.88-2.51c-4.04-2.35-7.96-5.81-11-8.83,3.89,5.6,7.05,9.21,9.12,11.34Z" fill="#937764" stroke-width="0"/><path d="M45.32,31.54c7.09-4.13,13.83-11.67,16.01-14.24.41-.48,1.14-.48,1.56,0,1.88,2.18,6.04,8.18,2.23,15.27-4.81,8.93-14.08,6.61-14.08,6.61l-5.71-7.64Z" fill="#dbadaa" stroke-width="0"/><path d="M47.2,34.05l-1.88-2.51c4.04-2.35,7.96-5.81,11-8.83-3.89,5.6-7.05,9.21-9.12,11.34Z" fill="#937764" stroke-width="0"/><path d="M57.38,48.47c-.27-5.62-2.04-3.85-3.2-8.54-1.16-4.69-7.73-9.71-7.73-9.71l-.57-.29c-2.77-1.3-5.88-2.03-9.17-2.03-3.54,0-6.87.84-9.78,2.32-.1.07-6.58,5.05-7.73,9.71-1.13,4.59-2.88,2.99-3.18,8.21.37,10.37,9.49,15.63,20.69,15.63s20.1-5.14,20.67-15.27c0-.02,0-.03,0-.04Z" fill="#937764" stroke-width="0"/><polygon points="38.87 56.45 35.79 56.45 34.56 50.91 40.09 50.91 38.87 56.45" fill="#fff" stroke-width="0"/><path d="M35.23,53.93c.79-.43,1.45-1.1,1.9-1.92.52.94,1.31,1.68,2.25,2.09l.71-3.19h-5.53l.67,3.01Z" fill="#dfd1ca" stroke-width="0"/><path d="M41.13,43.21c-1.69,0-3.17.99-3.99,2.47-.82-1.48-2.3-2.47-3.99-2.47-2.58,0-4.67,2.29-4.67,5.11s2.09,5.11,4.67,5.11c1.69,0,3.17-.99,3.99-2.47.82,1.48,2.3,2.47,3.99,2.47,2.58,0,4.67-2.29,4.67-5.11s-2.09-5.11-4.67-5.11Z" fill="#b49379" stroke-width="0"/><circle cx="27.2" cy="39.33" r="3.35" fill="#322c1f" stroke-width="0"/><ellipse cx="26.83" cy="37.63" rx=".99" ry=".7" fill="#fdfdfd" stroke-width="0"/><circle cx="45.37" cy="39.33" r="3.35" fill="#322c1f" stroke-width="0"/><ellipse cx="45" cy="37.63" rx=".99" ry=".7" fill="#fdfdfd" stroke-width="0"/><path d="M40.32,45.23c-.48.73-1.42,2.38-3.18,2.38s-2.62-1.61-3.18-2.38c-.46-.63,1.42-1.42,3.18-1.42s3.61.76,3.18,1.42Z" fill="#dbadaa" stroke-width="0"/></svg>